<svg width="104" height="104" viewBox="0 0 104 104" fill="none" xmlns="http://www.w3.org/2000/svg">
<path d="M41.2251 91.9489C41.7386 92.0806 42.088 92.3251 42.2733 92.6826C42.457 93.0462 42.4758 93.5126 42.3299 94.0818L41.2041 98.4715C41.1549 98.6633 41.0681 98.796 40.9438 98.8697C40.8194 98.9433 40.6644 98.9563 40.4788 98.9087C40.2932 98.8611 40.1636 98.7751 40.0899 98.6507C40.0102 98.5247 39.9949 98.3658 40.044 98.174L41.1555 93.84C41.2285 93.5554 41.2237 93.33 41.141 93.1637C41.0522 92.9958 40.8964 92.8834 40.6737 92.8262C40.6242 92.8135 40.5778 92.8016 40.5345 92.7905C40.4896 92.7856 40.4447 92.7807 40.3998 92.7758C40.31 92.7659 40.2576 92.7261 40.2425 92.6563C40.2258 92.5927 40.2405 92.4712 40.2865 92.2918C40.3262 92.1371 40.3881 92.0244 40.4722 91.9536C40.5562 91.8829 40.6718 91.8564 40.8189 91.8744C40.8823 91.8841 40.9489 91.8945 41.0185 91.9058C41.0882 91.9171 41.157 91.9314 41.2251 91.9489Z" fill="#06382A"/>
<path d="M36.1458 90.158C36.5926 90.3478 36.9419 90.6038 37.1936 90.9259C37.4454 91.248 37.5913 91.6153 37.6311 92.0278C37.6685 92.4462 37.5898 92.8847 37.395 93.3432C37.2476 93.6901 37.0665 93.9775 36.8517 94.2054C36.6285 94.4368 36.3786 94.6082 36.1022 94.7198C35.8233 94.8373 35.5274 94.8885 35.2145 94.8736C34.8991 94.8645 34.5739 94.7888 34.2388 94.6464C33.7921 94.4566 33.4428 94.2006 33.191 93.8785C32.9392 93.5564 32.7934 93.1891 32.7535 92.7766C32.7136 92.364 32.7911 91.9285 32.9859 91.47C33.1333 91.1231 33.3186 90.834 33.5418 90.6027C33.7591 90.3689 34.0072 90.1932 34.2862 90.0758C34.5626 89.9642 34.8585 89.913 35.1739 89.922C35.4867 89.937 35.8107 90.0156 36.1458 90.158ZM35.7899 90.9957C35.5724 90.9033 35.3588 90.875 35.1493 90.9109C34.9397 90.9468 34.7471 91.0489 34.5715 91.2172C34.3876 91.3889 34.2294 91.6305 34.097 91.942C33.8972 92.4123 33.8485 92.8046 33.951 93.1188C34.051 93.4388 34.2655 93.6688 34.5948 93.8087C34.8123 93.9011 35.0258 93.9294 35.2354 93.8935C35.4424 93.8635 35.6379 93.7626 35.8219 93.591C35.9975 93.4227 36.1515 93.1828 36.2839 92.8712C36.4812 92.4068 36.5311 92.0116 36.4337 91.6856C36.3337 91.3656 36.1191 91.1356 35.7899 90.9957Z" fill="#06382A"/>
<path d="M29.6987 86.7298C29.8323 86.8172 29.9271 86.9289 29.9832 87.0648C30.034 87.1973 30.0442 87.3566 30.0139 87.5429L29.353 91.3353C29.3242 91.4844 29.2712 91.6062 29.1941 91.7008C29.1116 91.7918 29.011 91.8405 28.8924 91.8469C28.7649 91.855 28.629 91.8119 28.4847 91.7175C28.3618 91.6371 28.2821 91.543 28.2457 91.4352C28.2059 91.3328 28.2073 91.1849 28.2499 90.9914L28.9354 87.5814L29.1759 87.7388L26.2884 89.7195C26.1317 89.8307 25.9985 89.8885 25.8887 89.893C25.77 89.8993 25.6439 89.8588 25.5103 89.7713C25.3927 89.6944 25.3201 89.6011 25.2926 89.4915C25.2616 89.3873 25.2713 89.2791 25.3217 89.1671C25.3686 89.0604 25.4573 88.9657 25.5877 88.8831L28.8274 86.7665C28.9806 86.6607 29.1307 86.6062 29.2777 86.6032C29.4194 86.5967 29.5597 86.6389 29.6987 86.7298Z" fill="#06382A"/>
<path d="M23.8376 82.0515C24.223 82.4156 24.487 82.8012 24.6295 83.2083C24.7721 83.6155 24.795 84.0237 24.6982 84.4331C24.5967 84.8381 24.3749 85.2217 24.0328 85.5838C23.6994 85.9367 23.3357 86.1775 22.9418 86.3061C22.5432 86.4304 22.146 86.4462 21.7503 86.3535C21.3455 86.261 20.9783 86.0591 20.6487 85.7477C20.4073 85.5196 20.2287 85.2761 20.1129 85.0174C19.9924 84.7542 19.9351 84.4847 19.9408 84.2089C19.9419 83.9288 20.0085 83.649 20.1407 83.3696C20.2638 83.0905 20.4503 82.8187 20.7004 82.554C20.7793 82.4704 20.8709 82.434 20.9751 82.4446C21.0703 82.4554 21.1713 82.5113 21.2781 82.6122L23.5136 84.7243L23.0399 85.2257L21.0829 83.3768L21.2931 83.3776C21.0913 83.5912 20.9549 83.8006 20.8839 84.006C20.8083 84.2069 20.7957 84.4016 20.8463 84.5899C20.8878 84.7785 20.9967 84.9561 21.1732 85.1228C21.3682 85.307 21.5792 85.4185 21.8062 85.4573C22.0242 85.4963 22.2493 85.4673 22.4815 85.3703C22.7046 85.2736 22.9237 85.1115 23.1386 84.884L23.1847 84.8353C23.5444 84.4546 23.7259 84.0857 23.7294 83.7287C23.7237 83.3719 23.5468 83.029 23.1986 82.7C23.0779 82.5859 22.9301 82.4727 22.7552 82.3601C22.5713 82.2479 22.3769 82.1653 22.1721 82.1124C22.022 82.076 21.9141 82.018 21.8486 81.9386C21.7787 81.8637 21.7448 81.7834 21.7469 81.6975C21.7443 81.6072 21.7713 81.5228 21.8278 81.4444C21.88 81.3706 21.9575 81.3165 22.0604 81.2819C22.1587 81.243 22.2738 81.2375 22.4056 81.2653C22.6646 81.3167 22.925 81.4178 23.1868 81.5685C23.4396 81.7194 23.6566 81.8805 23.8376 82.0515Z" fill="#06382A"/>
<path d="M16.9348 73.4485C17.0332 73.6129 17.0664 73.7679 17.0345 73.9136C16.9938 74.0571 16.8885 74.1796 16.7186 74.2813L13.9316 75.9491L14.1579 76.3273C14.2366 76.4588 14.2644 76.5799 14.2413 76.6905C14.2126 76.8044 14.138 76.8974 14.0175 76.9696C13.8914 77.045 13.7742 77.0668 13.6658 77.0349C13.5574 77.003 13.4638 76.9213 13.3851 76.7897L12.9817 76.1156L13.4301 76.2492L13.1505 76.4165C12.586 76.7543 12.0787 76.8643 11.6286 76.7466C11.1731 76.6321 10.7599 76.3211 10.3892 75.8135L10.1972 75.5487C10.1207 75.4457 10.0874 75.3465 10.0974 75.2512C10.1018 75.1592 10.1359 75.0793 10.1995 75.0114C10.2576 74.9469 10.33 74.8999 10.4166 74.8704C10.5031 74.8409 10.593 74.8355 10.6861 74.8543C10.7704 74.8708 10.8399 74.9185 10.8946 74.9975L10.9717 75.1076C11.1805 75.4069 11.3961 75.5868 11.6184 75.6473C11.8407 75.7078 12.0916 75.6545 12.3712 75.4872L12.6753 75.3052L12.6225 75.5154L12.1256 74.6851C12.0469 74.5535 12.0191 74.4324 12.0422 74.3218C12.0654 74.2112 12.14 74.1182 12.266 74.0428C12.3866 73.9706 12.5039 73.9488 12.6177 73.9775C12.7261 74.0093 12.8197 74.0911 12.8984 74.2226L13.3166 74.9214L16.1036 73.2536C16.4544 73.0437 16.7315 73.1087 16.9348 73.4485Z" fill="#06382A"/>
<path d="M14.053 67.6075C14.2345 68.0578 14.3003 68.4858 14.2504 68.8916C14.2004 69.2973 14.0436 69.6601 13.78 69.9799C13.5104 70.302 13.1446 70.5562 12.6825 70.7425C12.333 70.8833 12.0017 70.9583 11.6886 70.9675C11.3671 70.9731 11.0693 70.9175 10.795 70.8008C10.5148 70.6865 10.2694 70.5134 10.0588 70.2815C9.84236 70.0519 9.66607 69.7683 9.52996 69.4307C9.34848 68.9804 9.28271 68.5524 9.33264 68.1466C9.38257 67.7409 9.53936 67.3781 9.80301 67.0584C10.0667 66.7386 10.4295 66.4856 10.8916 66.2993C11.2411 66.1585 11.5766 66.0852 11.898 66.0796C12.2171 66.0681 12.5167 66.1195 12.7969 66.2338C13.0712 66.3505 13.3166 66.5236 13.5331 66.7531C13.7436 66.9851 13.9169 67.2699 14.053 67.6075ZM13.2089 67.9478C13.1205 67.7286 12.9896 67.5576 12.8161 67.4347C12.6426 67.3118 12.4343 67.2477 12.1911 67.2424C11.9396 67.2336 11.6569 67.2924 11.3429 67.419C10.869 67.61 10.5571 67.8528 10.4072 68.1474C10.2515 68.4443 10.2404 68.7586 10.3741 69.0904C10.4625 69.3096 10.5934 69.4806 10.7669 69.6035C10.9345 69.7288 11.144 69.7959 11.3955 69.8047C11.6386 69.81 11.9172 69.7493 12.2312 69.6228C12.6992 69.4341 13.0141 69.1902 13.1758 68.8908C13.3315 68.5939 13.3426 68.2796 13.2089 67.9478Z" fill="#06382A"/>
<path d="M12.1964 61.8583C12.2409 62.0512 12.2257 62.2121 12.1505 62.3409C12.0677 62.4649 11.9299 62.5492 11.737 62.5938L8.20831 63.409C8.01539 63.4536 7.85764 63.4376 7.73506 63.361C7.61248 63.2844 7.53034 63.1559 7.48865 62.9754C7.44695 62.795 7.46439 62.6434 7.54095 62.5209C7.61752 62.3983 7.75227 62.3147 7.94519 62.2701L8.5333 62.1343L8.55487 62.2276C8.16134 62.2267 7.83863 62.121 7.58676 61.9104C7.33489 61.6999 7.14139 61.3873 7.00628 60.9727C6.96364 60.8449 6.97415 60.7343 7.0378 60.6409C7.09379 60.5428 7.20125 60.4688 7.36018 60.419C7.51289 60.3706 7.64909 60.3784 7.76879 60.4426C7.88084 60.5019 7.9656 60.6134 8.02309 60.7771L8.08921 60.9782C8.21426 61.3492 8.39864 61.6081 8.64236 61.7551C8.87986 61.9034 9.17597 61.9366 9.5307 61.8547L11.4631 61.4082C11.656 61.3636 11.8168 61.3789 11.9456 61.4541C12.0682 61.5306 12.1518 61.6654 12.1964 61.8583Z" fill="#06382A"/>
<path d="M11.1009 50.8259C11.0867 51.1641 11.0101 51.4645 10.8712 51.7272C10.7262 51.9832 10.5388 52.1831 10.3089 52.3268C10.0794 52.4642 9.82424 52.527 9.54345 52.5151C9.19884 52.5006 8.93138 52.3999 8.74108 52.2128C8.54439 52.0256 8.40984 51.729 8.33743 51.3232C8.26502 50.9174 8.24306 50.3763 8.27154 49.6998L8.2917 49.2212L8.98092 49.2502L8.96116 49.7193C8.9445 50.1149 8.95034 50.4316 8.97869 50.6694C9.00703 50.9071 9.06692 51.079 9.15834 51.1852C9.24366 51.2847 9.36927 51.3379 9.5352 51.3449C9.74579 51.3538 9.92118 51.2876 10.0614 51.1465C10.2016 51.0054 10.2772 50.804 10.2882 50.5423C10.2971 50.3317 10.257 50.1446 10.168 49.9811C10.0729 49.8108 9.94118 49.6742 9.77291 49.5713C9.60464 49.4683 9.40882 49.4121 9.18546 49.4027L8.08463 49.3563C7.76555 49.3429 7.53286 49.4034 7.38655 49.5379C7.24024 49.6724 7.1601 49.9055 7.14612 50.2374C7.13833 50.4225 7.1522 50.6244 7.18773 50.8433C7.22354 51.0557 7.29071 51.2823 7.38925 51.523C7.44158 51.6467 7.45297 51.7558 7.42341 51.8505C7.39412 51.9388 7.34011 52.0068 7.26138 52.0546C7.17627 52.1022 7.08585 52.124 6.99013 52.1199C6.8944 52.1159 6.80294 52.0865 6.71575 52.0317C6.62218 51.9766 6.55561 51.8875 6.51604 51.7643C6.40715 51.4657 6.33283 51.1813 6.29306 50.9111C6.25356 50.6345 6.23852 50.3846 6.24793 50.1612C6.26728 49.7017 6.35333 49.3282 6.50609 49.0405C6.65912 48.7465 6.88231 48.5321 7.17566 48.3975C7.46263 48.2625 7.82948 48.2044 8.27619 48.2233L10.5736 48.32C10.7714 48.3283 10.9226 48.3826 11.027 48.4829C11.1251 48.583 11.1704 48.7223 11.1628 48.901C11.1553 49.0797 11.0983 49.2179 10.9919 49.3157C10.8794 49.4069 10.7242 49.4483 10.5264 49.44L10.0669 49.4206L10.0702 49.344C10.2916 49.3981 10.4825 49.4957 10.6428 49.6367C10.797 49.771 10.9145 49.939 10.9956 50.1406C11.0766 50.3422 11.1117 50.5706 11.1009 50.8259Z" fill="#06382A"/>
<path d="M13.251 38.9972C13.0913 39.5028 12.828 39.8383 12.461 40.0037C12.0878 40.1672 11.6211 40.1605 11.0607 39.9835L6.73925 38.619C6.55043 38.5594 6.42268 38.4655 6.356 38.3373C6.28932 38.209 6.28483 38.0536 6.34252 37.8708C6.40022 37.6881 6.49318 37.5634 6.6214 37.4967C6.75155 37.4239 6.91103 37.4174 7.09985 37.477L11.3665 38.8242C11.6467 38.9127 11.872 38.9202 12.0426 38.8468C12.215 38.7673 12.3359 38.6179 12.4051 38.3986C12.4205 38.3499 12.4349 38.3042 12.4484 38.2616C12.4558 38.217 12.4631 38.1724 12.4705 38.1279C12.4853 38.0388 12.5279 37.9886 12.5984 37.9774C12.6629 37.9642 12.7834 37.9855 12.96 38.0413C13.1123 38.0894 13.2215 38.1573 13.2875 38.2452C13.3535 38.333 13.3736 38.4499 13.3476 38.5957C13.3345 38.6586 13.3204 38.7244 13.3053 38.7934C13.2902 38.8623 13.2721 38.9302 13.251 38.9972Z" fill="#06382A"/>
<path d="M14.6498 35.3773C14.5718 35.5523 14.4595 35.6631 14.3129 35.7097C14.1663 35.7563 13.9997 35.7381 13.813 35.6549L10.6008 34.2248C10.4082 34.139 10.2831 34.0274 10.2255 33.8899C10.162 33.7497 10.1693 33.5922 10.2472 33.4171C10.3251 33.242 10.4374 33.1312 10.584 33.0846C10.7274 33.0296 10.8953 33.0449 11.0879 33.1307L14.3001 34.5609C14.4868 34.644 14.6119 34.7556 14.6754 34.8957C14.7388 35.0359 14.7303 35.1964 14.6498 35.3773ZM9.4332 33.0547C9.34227 33.2589 9.22123 33.3973 9.07008 33.4698C8.91568 33.5339 8.74804 33.5257 8.56716 33.4452C8.38043 33.362 8.26216 33.243 8.21232 33.0879C8.16508 32.9271 8.18693 32.7445 8.27786 32.5403C8.37139 32.3302 8.49243 32.1918 8.64099 32.1251C8.78954 32.0584 8.95718 32.0667 9.1439 32.1498C9.32479 32.2303 9.44307 32.3494 9.49874 32.507C9.54857 32.6621 9.52673 32.8446 9.4332 33.0547Z" fill="#06382A"/>
<path d="M16.8477 31.1617C16.7496 31.3264 16.6289 31.4292 16.4855 31.4701C16.3399 31.5023 16.1821 31.4678 16.012 31.3664L13.2217 29.7041L12.9961 30.0827C12.9177 30.2144 12.8243 30.2963 12.7159 30.3284C12.6021 30.3572 12.4848 30.3357 12.3641 30.2638C12.2379 30.1886 12.1631 30.0957 12.1398 29.9851C12.1164 29.8746 12.144 29.7534 12.2224 29.6218L12.6245 28.9468L12.7196 29.405L12.4398 29.2382C11.8746 28.9015 11.5371 28.5071 11.4272 28.055C11.3119 27.5997 11.3897 27.0885 11.6607 26.5213L11.8027 26.2267C11.8571 26.1104 11.9286 26.0341 12.0173 25.9977C12.1004 25.958 12.1869 25.95 12.2768 25.9739C12.3612 25.9944 12.4369 26.0358 12.5039 26.098C12.5709 26.1603 12.6183 26.2368 12.646 26.3276C12.6714 26.4097 12.6624 26.4935 12.6188 26.5791L12.5584 26.6992C12.394 27.0251 12.3379 27.3002 12.3901 27.5246C12.4423 27.749 12.6083 27.9446 12.8881 28.1113L13.1927 28.2927L12.9825 28.346L13.4778 27.5146C13.5562 27.383 13.6496 27.3011 13.758 27.2689C13.8663 27.2368 13.9836 27.2584 14.1098 27.3336C14.2305 27.4055 14.3053 27.4984 14.3342 27.6122C14.3575 27.7228 14.3299 27.8439 14.2515 27.9756L13.8347 28.6752L16.6249 30.3376C16.9761 30.5468 17.0504 30.8215 16.8477 31.1617Z" fill="#06382A"/>
<path d="M20.7331 25.7212C20.3943 26.1289 20.0263 26.4168 19.629 26.585C19.2318 26.7532 18.8258 26.802 18.4111 26.7314C18.0005 26.6559 17.6036 26.4589 17.2204 26.1405C16.8471 25.8302 16.5837 25.4826 16.4302 25.0976C16.2809 24.7077 16.2399 24.3123 16.3072 23.9115C16.3737 23.5017 16.5519 23.1224 16.8418 22.7736C17.054 22.5182 17.2856 22.3245 17.5365 22.1925C17.7915 22.0556 18.0568 21.9812 18.3324 21.9694C18.612 21.9527 18.8955 22.0013 19.1827 22.1155C19.469 22.2206 19.7522 22.3895 20.0322 22.6222C20.1207 22.6957 20.1629 22.7848 20.1589 22.8894C20.1542 22.9851 20.1048 23.0895 20.0109 23.2024L18.0452 25.5677L17.5147 25.1268L19.2355 23.0563L19.248 23.266C19.022 23.0782 18.8043 22.9554 18.5949 22.8977C18.3895 22.835 18.1945 22.8348 18.0098 22.8972C17.8242 22.9506 17.6538 23.0707 17.4987 23.2573C17.3272 23.4636 17.2294 23.6813 17.2052 23.9103C17.1801 24.1303 17.2233 24.3531 17.3349 24.5787C17.4455 24.7953 17.6212 25.0036 17.8619 25.2036L17.9135 25.2465C18.3163 25.5813 18.696 25.739 19.0525 25.7197C19.4083 25.6914 19.7392 25.4931 20.0454 25.1247C20.1515 24.9969 20.2552 24.8422 20.3564 24.6605C20.4567 24.4699 20.5268 24.2706 20.5666 24.0629C20.5933 23.9107 20.6443 23.7994 20.7194 23.729C20.7897 23.6545 20.8677 23.6155 20.9536 23.6121C21.0435 23.6038 21.1294 23.6254 21.2113 23.6768C21.2882 23.7241 21.3472 23.7981 21.3882 23.8986C21.4333 23.9942 21.4462 24.1087 21.4267 24.242C21.3919 24.5038 21.3076 24.7701 21.1739 25.041C21.0393 25.3028 20.8924 25.5296 20.7331 25.7212Z" fill="#06382A"/>
<path d="M25.9669 20.4951C25.6551 20.7693 25.3473 20.9464 25.0435 21.0264C24.7444 21.1023 24.456 21.0838 24.1781 20.9709C23.896 20.8532 23.6221 20.6433 23.3563 20.3411L22.0087 18.8086L21.6346 19.1376C21.5195 19.2388 21.4054 19.2881 21.2925 19.2853C21.1753 19.2778 21.0703 19.2213 20.9775 19.1158C20.8805 19.0055 20.8379 18.8941 20.8496 18.7817C20.8613 18.6693 20.9248 18.5625 21.0399 18.4613L21.414 18.1323L20.8383 17.4776C20.7075 17.3289 20.6468 17.1824 20.656 17.0382C20.6701 16.8897 20.7491 16.7522 20.893 16.6257C21.0369 16.4992 21.1809 16.4405 21.3251 16.4498C21.4694 16.459 21.6069 16.538 21.7376 16.6867L22.3134 17.3414L23.076 16.6708C23.1911 16.5696 23.3052 16.5203 23.4181 16.523C23.5311 16.5258 23.6361 16.5823 23.7331 16.6926C23.8259 16.7981 23.8685 16.9095 23.861 17.0267C23.8493 17.1391 23.7859 17.2459 23.6707 17.3471L22.9081 18.0177L24.2114 19.4999C24.4139 19.7301 24.6161 19.8585 24.818 19.885C25.02 19.9116 25.2337 19.8257 25.4591 19.6275C25.5407 19.5558 25.6063 19.4853 25.656 19.4161C25.7057 19.3469 25.7524 19.2888 25.7962 19.2418C25.8495 19.1864 25.9143 19.1634 25.9907 19.1728C26.0628 19.1775 26.1537 19.2421 26.2633 19.3668C26.3477 19.4628 26.4068 19.5639 26.4407 19.6701C26.4752 19.7674 26.4644 19.8663 26.4081 19.9667C26.3626 20.0408 26.2959 20.1293 26.2078 20.2322C26.1239 20.34 26.0436 20.4276 25.9669 20.4951Z" fill="#06382A"/>
<path d="M28.98 18.2056C28.8222 18.3142 28.6686 18.3502 28.5192 18.3134C28.3699 18.2767 28.2372 18.1741 28.1213 18.0057L26.1276 15.1094C26.0081 14.9358 25.9597 14.7753 25.9823 14.6279C26.0013 14.4752 26.0897 14.3446 26.2475 14.2359C26.4054 14.1273 26.559 14.0914 26.7083 14.1281C26.8593 14.156 26.9946 14.2567 27.1141 14.4304L29.1078 17.3267C29.2237 17.495 29.2722 17.6556 29.2532 17.8082C29.2342 17.9608 29.1431 18.0933 28.98 18.2056ZM25.7423 13.502C25.5581 13.6288 25.3827 13.6836 25.2159 13.6666C25.0507 13.6407 24.912 13.5462 24.7997 13.3831C24.6839 13.2148 24.6451 13.0515 24.6835 12.8932C24.7272 12.7313 24.8411 12.587 25.0252 12.4603C25.2146 12.3299 25.3901 12.275 25.5516 12.2956C25.7131 12.3163 25.8519 12.4108 25.9678 12.5791C26.08 12.7422 26.1188 12.9055 26.084 13.069C26.0456 13.2273 25.9317 13.3716 25.7423 13.502Z" fill="#06382A"/>
<path d="M32.696 15.8362C32.5214 15.9153 32.3665 15.9293 32.2312 15.8784C32.0934 15.8216 31.9836 15.7031 31.9019 15.5227L30.4078 12.2237C30.3262 12.0433 30.3108 11.8855 30.3617 11.7502C30.4126 11.615 30.5225 11.5091 30.6912 11.4327C30.86 11.3563 31.0119 11.3436 31.1472 11.3945C31.2825 11.4454 31.3909 11.5611 31.4726 11.7414L31.7611 12.3786L31.5466 12.1602C31.5312 11.8166 31.6075 11.5051 31.7754 11.2257C31.9434 10.9463 32.1961 10.7302 32.5336 10.5773C32.8769 10.4219 33.1959 10.3755 33.4908 10.4383C33.7857 10.5011 34.0532 10.6815 34.2933 10.9794L34.1711 11.0347C34.1478 10.6737 34.2305 10.3452 34.4191 10.0495C34.6051 9.74789 34.8726 9.51805 35.2217 9.35995C35.5475 9.21239 35.8442 9.15518 36.1116 9.18833C36.3848 9.21884 36.6331 9.3413 36.8564 9.55569C37.0771 9.76428 37.277 10.0664 37.4562 10.462L38.4127 12.5741C38.4944 12.7545 38.5082 12.9165 38.4541 13.0603C38.4031 13.1955 38.2904 13.3027 38.1158 13.3817C37.9413 13.4608 37.7864 13.4748 37.6511 13.4239C37.5132 13.3671 37.4034 13.2486 37.3218 13.0682L36.385 10.9997C36.2375 10.6739 36.0741 10.4604 35.8951 10.3592C35.7218 10.2553 35.5072 10.2614 35.2512 10.3773C34.9661 10.5064 34.7882 10.7097 34.7175 10.9871C34.6442 11.2587 34.6879 11.572 34.8486 11.9269L35.6984 13.8034C35.7801 13.9837 35.7968 14.1445 35.7485 14.2855C35.6976 14.4208 35.5848 14.5279 35.4103 14.607C35.2357 14.686 35.0779 14.7014 34.9368 14.6531C34.7989 14.5964 34.6891 14.4778 34.6075 14.2974L33.6707 12.229C33.5232 11.9031 33.3598 11.6896 33.1808 11.5884C33.0075 11.4846 32.7958 11.4893 32.5456 11.6026C32.2605 11.7317 32.0826 11.935 32.0119 12.2124C31.9386 12.484 31.9823 12.7973 32.1431 13.1522L32.9928 15.0286C33.1615 15.401 33.0625 15.6702 32.696 15.8362Z" fill="#06382A"/>
<path d="M43.9178 11.87C43.3993 11.9805 42.932 11.9788 42.5159 11.865C42.0998 11.7513 41.7508 11.5383 41.4687 11.2261C41.193 10.9126 41.0032 10.5122 40.8994 10.025C40.7982 9.5502 40.8065 9.11414 40.9243 8.7168C41.0483 8.31812 41.2608 7.98223 41.5618 7.70911C41.8678 7.42842 42.2425 7.24082 42.686 7.14632C43.0109 7.07711 43.3127 7.06831 43.5914 7.11994C43.8764 7.17024 44.1308 7.27604 44.3546 7.43734C44.5846 7.59732 44.777 7.811 44.932 8.0784C45.0918 8.33822 45.2097 8.64617 45.2856 9.00226C45.3095 9.1147 45.2875 9.21081 45.2196 9.29059C45.1567 9.36278 45.0533 9.41419 44.9096 9.4448L41.9017 10.0857L41.7579 9.41102L44.3911 8.84998L44.2711 9.02249C44.2099 8.73512 44.1149 8.50393 43.9862 8.3289C43.8637 8.15255 43.7106 8.0317 43.5269 7.96635C43.3481 7.89343 43.14 7.88226 42.9026 7.93284C42.6402 7.98874 42.4286 8.09913 42.2678 8.264C42.112 8.4213 42.008 8.62304 41.956 8.86923C41.9088 9.10784 41.9179 9.3802 41.9831 9.68631L41.9971 9.7519C42.1062 10.2642 42.3068 10.6231 42.5988 10.8286C42.8956 11.0266 43.2783 11.0757 43.7469 10.9758C43.9093 10.9412 44.0865 10.8839 44.2784 10.8038C44.4752 10.7161 44.6536 10.603 44.8134 10.4645C44.9286 10.3616 45.0376 10.3057 45.1402 10.2969C45.2415 10.2819 45.3269 10.2996 45.3964 10.3501C45.4722 10.3992 45.5263 10.4693 45.5588 10.5604C45.5899 10.6452 45.5905 10.7398 45.5604 10.8441C45.5367 10.9471 45.4759 11.045 45.3781 11.1377C45.1887 11.3217 44.9577 11.4787 44.685 11.6086C44.4172 11.731 44.1614 11.8181 43.9178 11.87Z" fill="#06382A"/>
<path d="M60.4345 11.8102C59.9127 11.7165 59.5463 11.4982 59.3353 11.1553C59.1254 10.8062 59.0724 10.3424 59.1762 9.76402L59.977 5.30355C60.0119 5.10866 60.0888 4.96995 60.2074 4.88742C60.3261 4.80489 60.4797 4.78055 60.6683 4.81441C60.8569 4.84827 60.9925 4.92452 61.075 5.04317C61.1638 5.16294 61.1907 5.32028 61.1557 5.51517L60.3651 9.91906C60.3132 10.2082 60.3346 10.4327 60.4292 10.5925C60.5301 10.7534 60.6937 10.8541 60.92 10.8947C60.9703 10.9038 61.0175 10.9122 61.0615 10.9201C61.1066 10.9217 61.1518 10.9234 61.1969 10.925C61.2872 10.9282 61.3424 10.9641 61.3625 11.0326C61.3838 11.0948 61.3781 11.2171 61.3453 11.3994C61.3171 11.5566 61.2637 11.6735 61.185 11.7502C61.1063 11.827 60.993 11.8618 60.845 11.8547C60.781 11.8497 60.7139 11.8441 60.6436 11.838C60.5733 11.8319 60.5036 11.8226 60.4345 11.8102Z" fill="#06382A"/>
<path d="M65.6317 13.2237C65.1722 13.0672 64.8051 12.8375 64.5304 12.5348C64.2556 12.232 64.0833 11.8764 64.0132 11.4679C63.9453 11.0534 63.9916 10.6103 64.1523 10.1387C64.2738 9.78199 64.4334 9.48208 64.6309 9.23898C64.8365 8.99189 65.0731 8.80258 65.3406 8.67103C65.6101 8.53344 65.9015 8.46062 66.2146 8.45259C66.5298 8.43851 66.8597 8.49017 67.2043 8.60758C67.6638 8.76412 68.031 8.99378 68.3057 9.29656C68.5804 9.59933 68.7528 9.95496 68.8228 10.3634C68.8928 10.7719 68.8475 11.212 68.6868 11.6835C68.5653 12.0403 68.4017 12.3422 68.1961 12.5893C67.9965 12.8384 67.7619 13.0318 67.4924 13.1694C67.2249 13.3009 66.9335 13.3737 66.6183 13.3878C66.3052 13.3958 65.9763 13.3411 65.6317 13.2237ZM65.9252 12.3622C66.1489 12.4384 66.364 12.4509 66.5703 12.3998C66.7767 12.3486 66.9613 12.2327 67.124 12.052C67.2949 11.8673 67.435 11.6147 67.5441 11.2942C67.7089 10.8106 67.7287 10.4158 67.6035 10.11C67.4803 9.7981 67.2494 9.58449 66.9108 9.46914C66.6871 9.39293 66.4721 9.3804 66.2657 9.43156C66.0614 9.47667 65.8738 9.59157 65.7029 9.77627C65.5401 9.95699 65.4042 10.2076 65.295 10.528C65.1323 11.0056 65.1115 11.4034 65.2326 11.7213C65.3558 12.0332 65.5866 12.2468 65.9252 12.3622Z" fill="#06382A"/>
<path d="M72.3126 16.1702C72.1729 16.0928 72.0701 15.9884 72.0042 15.8569C71.9439 15.7286 71.922 15.5704 71.9385 15.3824L72.3195 11.5517C72.3373 11.4009 72.3812 11.2755 72.4512 11.1756C72.5268 11.0787 72.6235 11.0228 72.7414 11.0078C72.8679 10.9902 73.0066 11.0233 73.1575 11.1069C73.286 11.1781 73.3723 11.2661 73.4164 11.3709C73.4637 11.4701 73.4732 11.6177 73.4449 11.8138L73.0113 15.2649L72.7599 15.1256L75.4943 12.9384C75.6425 12.8161 75.7711 12.7486 75.8803 12.7361C75.9982 12.721 76.1269 12.7522 76.2666 12.8296C76.3895 12.8977 76.4687 12.9854 76.5042 13.0927C76.5428 13.1944 76.541 13.303 76.499 13.4184C76.46 13.5283 76.3785 13.6292 76.2546 13.7211L73.1788 16.0696C73.0338 16.1864 72.8881 16.2517 72.7417 16.2655C72.6009 16.2825 72.4578 16.2507 72.3126 16.1702Z" fill="#06382A"/>
<path d="M78.5021 20.4061C78.0911 20.0713 77.7995 19.7061 77.6275 19.3105C77.4554 18.9149 77.4026 18.5095 77.4692 18.0941C77.5407 17.6827 77.7337 17.2839 78.0484 16.8976C78.355 16.5213 78.7 16.2545 79.0835 16.0973C79.4719 15.9441 79.8668 15.8992 80.2683 15.9627C80.6787 16.0252 81.0598 16.1996 81.4113 16.4861C81.6689 16.6958 81.8648 16.9255 81.9993 17.1751C82.1387 17.4287 82.2156 17.6933 82.2302 17.9687C82.2496 18.2482 82.2037 18.5321 82.0924 18.8204C81.9901 19.1078 81.824 19.3926 81.594 19.6749C81.5214 19.764 81.4328 19.8071 81.328 19.8042C81.2323 19.8004 81.1275 19.7521 81.0136 19.6593L78.6292 17.7168L79.0649 17.182L81.1522 18.8824L80.9425 18.897C81.1281 18.6692 81.2488 18.4503 81.3045 18.2403C81.3652 18.0344 81.3634 17.8393 81.2992 17.6552C81.244 17.4702 81.1223 17.301 80.9341 17.1477C80.7261 16.9783 80.5075 16.8825 80.2783 16.8606C80.058 16.8377 79.8357 16.8831 79.6112 16.9968C79.3957 17.1096 79.1891 17.2873 78.9915 17.53L78.9491 17.582C78.6183 17.988 78.4643 18.3692 78.4871 18.7256C78.5188 19.081 78.7204 19.41 79.0918 19.7125C79.2206 19.8174 79.3763 19.9196 79.5589 20.019C79.7506 20.1174 79.9505 20.1855 80.1587 20.2233C80.3111 20.2486 80.4229 20.2985 80.494 20.3729C80.5692 20.4424 80.6089 20.5201 80.6132 20.6059C80.6223 20.6958 80.6016 20.7819 80.551 20.8642C80.5044 20.9416 80.4311 21.0013 80.331 21.0433C80.2358 21.0894 80.1214 21.1033 79.9879 21.0852C79.7258 21.0529 79.4587 20.9712 79.1866 20.8401C78.9234 20.7081 78.6952 20.5634 78.5021 20.4061Z" fill="#06382A"/>
<path d="M86.0173 28.4799C85.9071 28.3231 85.8626 28.1709 85.8837 28.0233C85.9138 27.8773 86.0098 27.7473 86.1718 27.6334L88.829 25.7657L88.5756 25.4052C88.4874 25.2797 88.4508 25.161 88.4658 25.049C88.486 24.9333 88.5536 24.8351 88.6685 24.7543C88.7887 24.6698 88.904 24.6395 89.0145 24.6634C89.1249 24.6872 89.2242 24.7619 89.3124 24.8873L89.7642 25.53L89.3072 25.4296L89.5737 25.2423C90.1119 24.864 90.6098 24.7171 91.0673 24.8015C91.53 24.8822 91.9648 25.1621 92.3718 25.6411L92.5827 25.8911C92.6666 25.9883 92.7071 26.0847 92.7041 26.1805C92.7064 26.2726 92.6783 26.3548 92.6198 26.4271C92.5666 26.4958 92.4979 26.548 92.4137 26.5837C92.3295 26.6195 92.2403 26.6314 92.1461 26.6196C92.0608 26.6093 91.988 26.5667 91.9277 26.492L91.8427 26.3878C91.6124 26.1046 91.3842 25.941 91.1581 25.897C90.9319 25.853 90.6856 25.9246 90.4191 26.1119L90.1291 26.3158L90.1664 26.1022L90.7228 26.8939C90.811 27.0193 90.8476 27.138 90.8326 27.25C90.8177 27.362 90.7501 27.4603 90.6299 27.5447C90.5149 27.6256 90.3996 27.6559 90.2839 27.6357C90.1735 27.6118 90.0742 27.5372 89.986 27.4118L89.5177 26.7455L86.8605 28.6132C86.5261 28.8483 86.245 28.8039 86.0173 28.4799Z" fill="#06382A"/>
<path d="M89.3199 34.0937C89.1059 33.658 89.0089 33.236 89.0289 32.8276C89.049 32.4193 89.1787 32.046 89.4182 31.7078C89.6635 31.3667 90.0097 31.0864 90.4568 30.8667C90.7951 30.7006 91.12 30.6015 91.4316 30.5694C91.7517 30.5402 92.0529 30.5738 92.335 30.6701C92.6228 30.7635 92.8803 30.9182 93.1072 31.134C93.34 31.3471 93.5366 31.617 93.6971 31.9437C93.9111 32.3795 94.0081 32.8015 93.9881 33.2098C93.968 33.6182 93.8383 33.9915 93.5988 34.3297C93.3593 34.6679 93.016 34.9469 92.5688 35.1665C92.2305 35.3326 91.9013 35.4303 91.5812 35.4594C91.2639 35.4943 90.9613 35.4651 90.6734 35.3716C90.3913 35.2753 90.1339 35.1207 89.9012 34.9077C89.6742 34.6918 89.4804 34.4205 89.3199 34.0937ZM90.1369 33.6924C90.2411 33.9046 90.3842 34.0655 90.5662 34.1754C90.7483 34.2852 90.9607 34.3339 91.2036 34.3213C91.4551 34.3116 91.7327 34.2322 92.0366 34.083C92.4952 33.8577 92.7885 33.5927 92.9163 33.2879C93.0499 32.9804 93.0378 32.6661 92.8801 32.345C92.776 32.1329 92.6328 31.9719 92.4508 31.8621C92.2745 31.7494 92.0606 31.6979 91.8092 31.7076C91.5663 31.7201 91.2929 31.801 90.989 31.9503C90.5361 32.1727 90.24 32.4391 90.1007 32.7495C89.9671 33.0571 89.9792 33.3714 90.1369 33.6924Z" fill="#06382A"/>
<path d="M91.5921 39.6907C91.5335 39.5016 91.537 39.34 91.6025 39.206C91.6759 39.0763 91.8072 38.9821 91.9964 38.9235L95.4557 37.8517C95.6448 37.7931 95.8033 37.7974 95.9312 37.8648C96.0591 37.9322 96.1504 38.0543 96.2052 38.2313C96.2601 38.4082 96.2538 38.5606 96.1864 38.6885C96.119 38.8163 95.9908 38.9096 95.8017 38.9682L95.2251 39.1468L95.1967 39.0553C95.5893 39.0273 95.9189 39.1091 96.1855 39.3006C96.4521 39.4921 96.668 39.7897 96.8332 40.1932C96.8851 40.3176 96.8827 40.4286 96.8261 40.5264C96.7775 40.6284 96.6757 40.7101 96.5209 40.7714C96.3721 40.8309 96.2357 40.8331 96.1116 40.7779C95.9955 40.7269 95.9028 40.6219 95.8335 40.4629L95.7528 40.2672C95.6009 39.9064 95.398 39.6616 95.1441 39.533C94.8964 39.4024 94.5987 39.3911 94.2509 39.4988L92.3565 40.0858C92.1674 40.1444 92.0058 40.1409 91.8718 40.0755C91.744 40.0081 91.6507 39.8798 91.5921 39.6907Z" fill="#06382A"/>
<path d="M93.4947 50.6133C93.4841 50.275 93.5384 49.9697 93.6577 49.6976C93.7835 49.4316 93.9558 49.2186 94.1744 49.0583C94.3933 48.9045 94.6432 48.8232 94.9241 48.8144C95.2688 48.8036 95.5429 48.8845 95.7464 49.057C95.9563 49.2294 96.1123 49.5152 96.2143 49.9146C96.3162 50.314 96.3778 50.8521 96.399 51.5288L96.414 52.0076L95.7245 52.0292L95.7098 51.56C95.6974 51.1642 95.6684 50.8488 95.6227 50.6138C95.577 50.3787 95.5046 50.2117 95.4057 50.1125C95.3133 50.0196 95.1841 49.9757 95.0181 49.9809C94.8074 49.9875 94.6374 50.0663 94.5079 50.2173C94.3784 50.3684 94.3178 50.5748 94.326 50.8365C94.3326 51.0472 94.3863 51.2308 94.4871 51.3874C94.5944 51.5502 94.7358 51.6768 94.9111 51.7672C95.0865 51.8575 95.2859 51.8992 95.5094 51.8922L96.6106 51.8577C96.9298 51.8477 97.1575 51.7703 97.2935 51.6254C97.4296 51.4806 97.4924 51.2421 97.482 50.9102C97.4762 50.725 97.4475 50.5246 97.3961 50.309C97.3448 50.0997 97.2612 49.8786 97.1452 49.6458C97.084 49.5263 97.0646 49.4183 97.0871 49.3217C97.1099 49.2316 97.1587 49.1597 97.2338 49.1063C97.3152 49.0526 97.4037 49.0243 97.4995 49.0213C97.5953 49.0183 97.6886 49.0409 97.7796 49.0892C97.877 49.1372 97.9499 49.2212 97.9984 49.3411C98.1289 49.631 98.2239 49.9092 98.2833 50.1757C98.343 50.4486 98.3764 50.6968 98.3834 50.9203C98.3978 51.3799 98.3393 51.7588 98.2081 52.0569C98.077 52.3613 97.8702 52.5915 97.5875 52.7473C97.3112 52.9029 96.9496 52.9878 96.5027 53.0018L94.2044 53.0738C94.0065 53.08 93.8518 53.0369 93.7402 52.9445C93.6351 52.852 93.5797 52.7163 93.5741 52.5376C93.5685 52.3588 93.6152 52.2168 93.7141 52.1114C93.8197 52.0122 93.9714 51.9596 94.1693 51.9534L94.629 51.939L94.6314 52.0156C94.4065 51.9779 94.209 51.8946 94.0388 51.7657C93.8752 51.6431 93.7456 51.4842 93.65 51.289C93.5544 51.0939 93.5027 50.8687 93.4947 50.6133Z" fill="#06382A"/>
<path d="M92.2174 62.5672C92.3396 62.0513 92.5776 61.6974 92.9315 61.5055C93.2916 61.3151 93.7576 61.2876 94.3295 61.4229L98.7394 62.4668C98.932 62.5124 99.0663 62.5967 99.1423 62.7197C99.2182 62.8427 99.234 62.9974 99.1899 63.1839C99.1458 63.3703 99.0622 63.5015 98.9392 63.5774C98.8148 63.6596 98.6562 63.6778 98.4635 63.6322L94.1095 62.6016C93.8236 62.5339 93.5983 62.5429 93.4336 62.6286C93.2674 62.7206 93.1579 62.8784 93.1049 63.1022C93.0931 63.1519 93.0821 63.1985 93.0718 63.242C93.0677 63.287 93.0636 63.332 93.0596 63.377C93.0514 63.4669 93.0126 63.5201 92.943 63.5365C92.8797 63.5543 92.758 63.5419 92.5777 63.4992C92.4223 63.4624 92.3085 63.4027 92.2362 63.3199C92.1639 63.2372 92.1353 63.1221 92.1505 62.9747C92.159 62.9111 92.1682 62.8444 92.1782 62.7745C92.1882 62.7047 92.2013 62.6356 92.2174 62.5672Z" fill="#06382A"/>
<path d="M91.0875 66.2803C91.1524 66.1 91.2562 65.9813 91.399 65.924C91.5418 65.8668 91.7093 65.8728 91.9017 65.942L95.2101 67.1328C95.4084 67.2041 95.5414 67.3063 95.6089 67.4392C95.6825 67.5743 95.6868 67.732 95.622 67.9123C95.5571 68.0926 95.4532 68.2114 95.3104 68.2686C95.1715 68.334 95.0029 68.331 94.8045 68.2596L91.4961 67.0689C91.3038 66.9997 91.1708 66.8975 91.0973 66.7624C91.0237 66.6273 91.0204 66.4666 91.0875 66.2803ZM96.4603 68.214C96.536 68.0037 96.6466 67.8568 96.792 67.7734C96.9413 67.6981 97.1091 67.694 97.2954 67.7611C97.4877 67.8303 97.6144 67.9404 97.6755 68.0913C97.7344 68.2483 97.726 68.432 97.6503 68.6423C97.5724 68.8587 97.4619 69.0056 97.3186 69.083C97.1753 69.1604 97.0075 69.1645 96.8152 69.0953C96.6289 69.0282 96.5022 68.9181 96.4351 68.765C96.3741 68.6141 96.3825 68.4304 96.4603 68.214Z" fill="#06382A"/>
<path d="M89.2054 70.6459C89.2912 70.4745 89.404 70.3632 89.544 70.3118C89.6869 70.269 89.8468 70.2919 90.0239 70.3805L92.9286 71.8337L93.1258 71.4395C93.1944 71.3025 93.2815 71.2139 93.3872 71.174C93.4986 71.1369 93.6172 71.1497 93.7428 71.2126C93.8742 71.2783 93.9556 71.3655 93.987 71.474C94.0184 71.5826 93.9998 71.7054 93.9312 71.8425L93.5797 72.5451L93.4513 72.0952L93.7426 72.2409C94.3309 72.5353 94.6965 72.9039 94.8392 73.3467C94.9876 73.7923 94.9475 74.3079 94.7188 74.8934L94.5988 75.1976C94.5531 75.3176 94.4873 75.399 94.4016 75.4418C94.3216 75.4875 94.2359 75.5017 94.1445 75.4846C94.0589 75.4703 93.9803 75.4345 93.9089 75.3774C93.8375 75.3203 93.7847 75.2474 93.7504 75.1588C93.719 75.0788 93.7219 74.9946 93.7591 74.906L93.8105 74.7818C93.9506 74.4448 93.9863 74.1663 93.9178 73.9463C93.8493 73.7263 93.6694 73.5435 93.3781 73.3977L93.0611 73.2391L93.2667 73.1706L92.8338 74.036C92.7652 74.1731 92.678 74.2616 92.5723 74.3016C92.4666 74.3416 92.3481 74.3287 92.2167 74.263C92.0911 74.2001 92.0097 74.1129 91.9726 74.0015C91.9412 73.893 91.9598 73.7701 92.0283 73.6331L92.3927 72.9047L89.488 71.4515C89.1225 71.2686 89.0283 71.0001 89.2054 70.6459Z" fill="#06382A"/>
<path d="M85.7295 76.3565C86.0376 75.925 86.3835 75.6108 86.7673 75.4139C87.1511 75.2171 87.5525 75.1386 87.9712 75.1786C88.3863 75.2238 88.7966 75.3911 89.2021 75.6806C89.5972 75.9627 89.8853 76.29 90.0666 76.6627C90.2442 77.0406 90.314 77.4319 90.2763 77.8366C90.24 78.2502 90.0901 78.6415 89.8266 79.0106C89.6336 79.2809 89.4169 79.4911 89.1764 79.6412C88.9321 79.7964 88.673 79.89 88.399 79.922C88.1213 79.9592 87.8351 79.9315 87.5403 79.8387C87.247 79.7549 86.9522 79.6072 86.6559 79.3957C86.5623 79.3289 86.5136 79.2431 86.5099 79.1384C86.5076 79.0426 86.5492 78.935 86.6345 78.8154L88.4215 76.3123L88.9829 76.7131L87.4187 78.9043L87.3908 78.696C87.6299 78.8667 87.856 78.9732 88.0691 79.0155C88.2785 79.063 88.473 79.0488 88.6527 78.973C88.8339 78.9062 88.995 78.774 89.136 78.5764C89.2919 78.3581 89.3735 78.1338 89.3808 77.9036C89.3897 77.6824 89.3302 77.4633 89.2025 77.2466C89.0762 77.0387 88.8857 76.8438 88.631 76.662L88.5764 76.623C88.1501 76.3187 87.7599 76.1892 87.4057 76.2346C87.053 76.2889 86.7375 76.511 86.4592 76.9009C86.3627 77.0361 86.2707 77.1979 86.1831 77.3866C86.097 77.5841 86.0418 77.7879 86.0173 77.9981C86.0018 78.1518 85.9591 78.2665 85.8893 78.3422C85.8247 78.4217 85.7498 78.4663 85.6644 78.476C85.5753 78.4908 85.488 78.4756 85.4026 78.4304C85.3224 78.3888 85.2582 78.3194 85.2099 78.2221C85.1579 78.1301 85.1367 78.0168 85.1463 77.8825C85.1618 77.6189 85.2264 77.3471 85.3399 77.0671C85.4549 76.7961 85.5848 76.5592 85.7295 76.3565Z" fill="#06382A"/>
<path d="M80.8925 81.9527C81.1834 81.6564 81.4773 81.4572 81.7745 81.355C82.0672 81.2574 82.3562 81.2548 82.6416 81.347C82.9316 81.4436 83.2202 81.6329 83.5073 81.9148L84.9637 83.3443L85.3127 82.9888C85.4201 82.8794 85.5302 82.8219 85.6431 82.8163C85.7605 82.8152 85.8694 82.8639 85.9696 82.9623C86.0745 83.0652 86.1252 83.1732 86.1217 83.2861C86.1182 83.3991 86.0628 83.5102 85.9554 83.6196L85.6064 83.9752L86.2286 84.5859C86.37 84.7246 86.4413 84.8662 86.4426 85.0108C86.4395 85.1598 86.3708 85.3027 86.2366 85.4395C86.1024 85.5762 85.963 85.6453 85.8185 85.6466C85.6739 85.648 85.531 85.5793 85.3897 85.4406L84.7675 84.8299L84.0561 85.5546C83.9487 85.664 83.8386 85.7215 83.7257 85.7271C83.6129 85.7327 83.504 85.684 83.3992 85.5811C83.2989 85.4826 83.2482 85.3747 83.2471 85.2573C83.2506 85.1443 83.306 85.0332 83.4134 84.9238L84.1248 84.199L82.7163 82.8164C82.4975 82.6017 82.2864 82.4885 82.083 82.4768C81.8797 82.4651 81.6728 82.5664 81.4626 82.7807C81.3865 82.8582 81.3262 82.9333 81.2817 83.0059C81.2372 83.0786 81.1949 83.14 81.1547 83.19C81.1056 83.2492 81.0426 83.2769 80.9658 83.2731C80.8935 83.2738 80.7981 83.2159 80.6796 83.0996C80.5885 83.0101 80.5221 82.9136 80.4804 82.8101C80.4389 82.7157 80.4425 82.6163 80.4912 82.5119C80.5312 82.4348 80.5913 82.3416 80.6716 82.2325C80.7473 82.1189 80.8209 82.0256 80.8925 81.9527Z" fill="#06382A"/>
<path d="M78.0559 84.4572C78.2054 84.3373 78.3559 84.2902 78.5076 84.3159C78.6593 84.3416 78.799 84.4341 78.927 84.5935L81.1278 87.3358C81.2597 87.5002 81.3198 87.6567 81.308 87.8054C81.3003 87.959 81.2217 88.0958 81.0723 88.2157C80.9228 88.3357 80.7723 88.3828 80.6206 88.3571C80.4679 88.3404 80.3257 88.2498 80.1937 88.0854L77.9929 85.3431C77.865 85.1837 77.8049 85.0272 77.8127 84.8736C77.8204 84.7199 77.9015 84.5811 78.0559 84.4572ZM81.6299 88.9107C81.8043 88.7707 81.9753 88.7031 82.1429 88.7079C82.3095 88.7216 82.4547 88.8056 82.5787 88.9601C82.7066 89.1195 82.7572 89.2795 82.7305 89.4401C82.6989 89.6048 82.5959 89.7571 82.4215 89.897C82.2422 90.0409 82.0712 90.1085 81.9086 90.0998C81.746 90.0911 81.6007 90.007 81.4728 89.8476C81.3488 89.6932 81.2982 89.5331 81.3209 89.3675C81.3476 89.2069 81.4506 89.0546 81.6299 88.9107Z" fill="#06382A"/>
<path d="M74.5236 87.0921C74.6919 87.0004 74.8453 86.975 74.984 87.0159C75.1257 87.0624 75.2438 87.1726 75.3385 87.3465L77.0705 90.5271C77.1652 90.701 77.1921 90.8572 77.1512 90.9959C77.1104 91.1345 77.0086 91.2481 76.8459 91.3367C76.6832 91.4253 76.5326 91.4491 76.394 91.4082C76.2553 91.3674 76.1387 91.26 76.044 91.0861L75.7095 90.4718L75.9395 90.6739C75.9801 91.0154 75.9268 91.3317 75.7798 91.6227C75.6328 91.9136 75.3966 92.1477 75.0713 92.3249C74.7403 92.5051 74.4255 92.5747 74.1268 92.5337C73.8281 92.4927 73.5481 92.3325 73.2868 92.053L73.4046 91.9888C73.4543 92.3472 73.3959 92.6808 73.2295 92.9896C73.0662 93.304 72.8162 93.5529 72.4797 93.7361C72.1655 93.9072 71.8739 93.986 71.6048 93.9726C71.33 93.9622 71.0734 93.8583 70.835 93.6608C70.5996 93.469 70.3781 93.1823 70.1703 92.8009L69.0615 90.7646C68.9668 90.5908 68.9412 90.4302 68.9846 90.2829C69.0255 90.1442 69.1301 90.0291 69.2984 89.9375C69.4666 89.8458 69.6201 89.8205 69.7587 89.8613C69.9004 89.9078 70.0186 90.018 70.1133 90.1919L71.1992 92.1861C71.3703 92.5002 71.5488 92.7012 71.7348 92.789C71.9152 92.8799 72.1288 92.8581 72.3756 92.7237C72.6505 92.574 72.813 92.3582 72.8632 92.0764C72.9164 91.8001 72.8498 91.4909 72.6635 91.1487L71.6783 89.3397C71.5836 89.1658 71.5552 89.0067 71.593 88.8625C71.6339 88.7238 71.7385 88.6087 71.9068 88.5171C72.0751 88.4254 72.2313 88.3985 72.3756 88.4363C72.5172 88.4828 72.6354 88.593 72.7301 88.7669L73.816 90.7611C73.9871 91.0752 74.1656 91.2762 74.3516 91.364C74.532 91.4549 74.7428 91.4346 74.984 91.3033C75.2589 91.1536 75.4214 90.9378 75.4716 90.6559C75.5248 90.3797 75.4582 90.0705 75.2719 89.7283L74.2868 87.9192C74.0913 87.5602 74.1702 87.2845 74.5236 87.0921Z" fill="#06382A"/>
<path d="M63.6236 91.8706C64.1326 91.7224 64.5987 91.6898 65.0221 91.7728C65.4454 91.8557 65.8091 92.0425 66.1133 92.3332C66.4113 92.6256 66.6299 93.011 66.7692 93.4893C66.9049 93.9554 66.9286 94.3909 66.8403 94.7958C66.7458 95.2025 66.5585 95.5531 66.2784 95.8475C65.9939 96.1499 65.6339 96.3645 65.1985 96.4913C64.8796 96.5841 64.5793 96.615 64.2975 96.584C64.0095 96.5547 63.7481 96.4679 63.5131 96.3234C63.272 96.1807 63.0644 95.9817 62.8902 95.7264C62.7118 95.479 62.5716 95.1805 62.4698 94.831C62.4377 94.7206 62.4526 94.6231 62.5144 94.5386C62.5719 94.462 62.6712 94.4031 62.8123 94.3621L65.7651 93.5023L65.958 94.1646L63.3731 94.9172L63.4801 94.7364C63.5622 95.0185 63.6739 95.2421 63.8151 95.4072C63.9502 95.5741 64.1118 95.6834 64.2998 95.7351C64.4834 95.7947 64.6918 95.7906 64.9248 95.7227C65.1824 95.6477 65.3853 95.5221 65.5336 95.3459C65.6775 95.1776 65.7664 94.9688 65.8002 94.7194C65.8297 94.478 65.8007 94.2071 65.7132 93.9066L65.6945 93.8422C65.548 93.3393 65.3217 92.9961 65.0155 92.8125C64.7049 92.6368 64.3196 92.6159 63.8596 92.7499C63.7002 92.7963 63.5277 92.8665 63.3422 92.9604C63.1523 93.0623 62.9827 93.1881 62.8334 93.3381C62.7261 93.4491 62.6216 93.5128 62.5199 93.5291C62.42 93.5516 62.3335 93.5402 62.2604 93.4949C62.1813 93.4514 62.1221 93.3855 62.0831 93.2971C62.0458 93.2148 62.0383 93.1205 62.0606 93.0142C62.0767 92.9098 62.1302 92.8077 62.2209 92.7081C62.3963 92.5107 62.6152 92.3372 62.8777 92.1876C63.1358 92.0459 63.3844 91.9403 63.6236 91.8706Z" fill="#06382A"/>
<path d="M60.771 52.2289C60.771 52.855 60.574 53.4834 60.1799 53.9866C60.106 54.0853 59.7612 54.4923 59.4903 54.7571L59.3425 54.9016C57.2736 57.0951 52.126 60.3938 49.5153 61.4509C49.5153 61.4749 47.9636 62.1034 47.2247 62.125H47.1262C45.9932 62.125 44.9342 61.5014 44.3923 60.4901C44.0968 59.9339 43.8258 58.3207 43.8012 58.299C43.5795 56.8519 43.4318 54.6367 43.4318 52.2048C43.4318 49.655 43.5795 47.3411 43.8505 45.9204C43.8505 45.8964 44.1214 44.5961 44.2938 44.1627C44.5647 43.5391 45.0573 43.007 45.6731 42.6699C46.1657 42.4315 46.6829 42.3087 47.2247 42.3087C47.7912 42.3352 48.8503 42.694 49.269 42.8625C52.0275 43.922 57.2983 47.3892 59.3179 49.5081C59.6627 49.8452 60.0322 50.2569 60.1307 50.3508C60.5494 50.8805 60.771 51.5307 60.771 52.2289Z" fill="#06382A"/>
</svg>
