<svg width="145" height="33" viewBox="0 0 145 33" fill="none" xmlns="http://www.w3.org/2000/svg">
<path d="M16.3214 23.4892L24.727 28.5625L22.4964 19.0008L29.9226 12.5675L20.1434 11.7378L16.3214 2.72021L12.4995 11.7378L2.72025 12.5675L10.1465 19.0008L7.9159 28.5625L16.3214 23.4892Z" fill="#F8A401"/>
<path d="M44.3214 23.4892L52.727 28.5625L50.4964 19.0008L57.9226 12.5675L48.1434 11.7378L44.3214 2.72021L40.4995 11.7378L30.7202 12.5675L38.1465 19.0008L35.9159 28.5625L44.3214 23.4892Z" fill="#F8A401"/>
<path d="M72.3214 23.4892L80.727 28.5625L78.4964 19.0008L85.9226 12.5675L76.1434 11.7378L72.3214 2.72021L68.4995 11.7378L58.7202 12.5675L66.1465 19.0008L63.9159 28.5625L72.3214 23.4892Z" fill="#F8A401"/>
<path d="M100.321 23.4892L108.727 28.5625L106.496 19.0008L113.923 12.5675L104.143 11.7378L100.321 2.72021L96.4995 11.7378L86.7202 12.5675L94.1465 19.0008L91.9159 28.5625L100.321 23.4892Z" fill="#F8A401"/>
<path d="M128.321 23.4892L136.727 28.5625L134.496 19.0008L141.923 12.5675L132.143 11.7378L128.321 2.72021L124.499 11.7378L114.72 12.5675L122.146 19.0008L119.916 28.5625L128.321 23.4892Z" fill="#F8A401"/>
</svg>
