<svg width="20" height="20" viewBox="0 0 20 20" fill="none" xmlns="http://www.w3.org/2000/svg">
<path fill-rule="evenodd" clip-rule="evenodd" d="M13.7614 17.9166H6.80492C4.24962 17.9166 2.28928 16.9937 2.84611 13.279L3.49447 8.24463C3.83772 6.39108 5.02002 5.6817 6.0574 5.6817H14.5395C15.5921 5.6817 16.7058 6.44448 17.1024 8.24463L17.7508 13.279C18.2237 16.5741 16.3167 17.9166 13.7614 17.9166Z" stroke="black" stroke-width="1.5" stroke-linecap="round" stroke-linejoin="round"/>
<path d="M13.8759 5.49865C13.8759 3.51026 12.264 1.89835 10.2756 1.89835V1.89835C9.31806 1.89429 8.39839 2.27182 7.7199 2.94744C7.04141 3.62307 6.66 4.54114 6.66 5.49865H6.66" stroke="black" stroke-width="1.5" stroke-linecap="round" stroke-linejoin="round"/>
<path d="M12.747 9.25151H12.7088" stroke="black" stroke-width="1.5" stroke-linecap="round" stroke-linejoin="round"/>
<path d="M7.88807 9.25151H7.84993" stroke="black" stroke-width="1.5" stroke-linecap="round" stroke-linejoin="round"/>
</svg>
