<svg width="17" height="16" viewBox="0 0 17 16" fill="none" xmlns="http://www.w3.org/2000/svg">
<path d="M14.9378 8.1256C14.9378 7.68803 14.8974 7.27261 14.8282 6.86827H8.30842V9.36632H12.0414C11.8741 10.1861 11.3837 10.8784 10.6567 11.3493V13.0109H12.8838C14.1878 11.8533 14.9378 10.1473 14.9378 8.1256Z" fill="black"/>
<path d="M8.30842 3.96033C9.32966 3.96033 10.2413 4.29821 10.9625 4.95734L12.9357 3.06303C11.7414 1.98848 10.1778 1.32935 8.30842 1.32935C5.60242 1.32935 3.26569 2.82486 2.12906 4.99611L4.4254 6.70764C4.97353 5.12905 6.5025 3.96033 8.30842 3.96033Z" fill="#222222"/>
<path fill-rule="evenodd" clip-rule="evenodd" d="M8.30842 14.6228C5.60242 14.6228 3.26569 13.1273 2.12906 10.956L4.4254 9.24447C4.97353 10.8231 6.5025 11.9918 8.30842 11.9918C9.24311 11.9918 10.0336 11.7481 10.6567 11.3493L12.8838 13.0109C11.7414 14.0246 10.1778 14.6228 8.30842 14.6228ZM4.4254 6.70764V4.99611H2.12906L4.4254 6.70764Z" fill="black"/>
<path d="M2.12906 9.24447H4.4254C4.28116 8.84566 4.20615 8.41917 4.20615 7.97605C4.20615 7.53294 4.28693 7.10644 4.4254 6.70764L2.12906 4.99611C1.65594 5.89342 1.38477 6.9015 1.38477 7.97605C1.38477 9.0506 1.65594 10.0587 2.12906 10.956V9.24447Z" fill="black"/>
<path d="M4.4254 9.24447H2.12906V10.956L4.4254 9.24447Z" fill="black"/>
</svg>
