<svg width="17" height="16" viewBox="0 0 17 16" fill="none" xmlns="http://www.w3.org/2000/svg">
<path fill-rule="evenodd" clip-rule="evenodd" d="M8.30842 1.32935C6.42795 1.32935 6.19255 1.33688 5.45403 1.36923C4.71689 1.40157 4.21331 1.51412 3.77296 1.67852C3.31139 1.84513 2.89274 2.10657 2.54655 2.44511C2.19447 2.77706 1.92198 3.17868 1.74803 3.62202C1.5777 4.04475 1.46 4.52863 1.42631 5.23628C1.39307 5.94482 1.38477 6.17036 1.38477 7.97605C1.38477 9.78174 1.39261 10.0073 1.42631 10.7163C1.46 11.4239 1.57724 11.9074 1.74849 12.3301C1.92204 12.7732 2.19437 13.1751 2.54702 13.5074C2.89281 13.8454 3.31116 14.107 3.77296 14.274C4.21331 14.438 4.71689 14.5505 5.45403 14.5829C6.19255 14.6152 6.42795 14.6228 8.30842 14.6228C10.1889 14.6228 10.4243 14.6152 11.1628 14.5829C11.8999 14.5505 12.4035 14.438 12.8439 14.2736C13.3055 14.107 13.7241 13.8455 14.0703 13.507C14.4224 13.175 14.6949 12.7734 14.8688 12.3301C15.0396 11.9074 15.1568 11.4239 15.1905 10.7163C15.2242 10.0073 15.2321 9.7813 15.2321 7.97605C15.2321 6.17081 15.2242 5.94482 15.1905 5.23584C15.1568 4.52818 15.0396 4.04475 14.8684 3.62202C14.6945 3.17849 14.422 2.7767 14.0698 2.44466C13.724 2.10667 13.3057 1.84507 12.8439 1.67808C12.4035 1.51457 11.8995 1.40157 11.1623 1.36923C10.4243 1.33732 10.1893 1.32935 8.30842 1.32935ZM8.30842 2.52708C10.157 2.52708 10.3763 2.53373 11.1065 2.56563C11.7813 2.59532 12.1478 2.703 12.392 2.79472C12.7151 2.91481 12.9459 3.05926 13.1882 3.29145C13.4305 3.52409 13.5806 3.74565 13.7056 4.05582C13.8007 4.29023 13.9133 4.64206 13.9443 5.2899C13.9775 5.9909 13.9844 6.20138 13.9844 7.97605C13.9844 9.75072 13.9775 9.9612 13.9443 10.6622C13.9133 11.31 13.8012 11.6619 13.7056 11.8963C13.5948 12.185 13.418 12.4462 13.1882 12.6607C12.9648 12.8813 12.6928 13.0511 12.392 13.1574C12.1478 13.2487 11.7813 13.3568 11.1065 13.3865C10.3763 13.4184 10.1575 13.425 8.30842 13.425C6.45934 13.425 6.24055 13.4184 5.51034 13.3865C4.83551 13.3568 4.46902 13.2491 4.22485 13.1574C3.92411 13.051 3.65203 12.8813 3.42863 12.6607C3.19884 12.4462 3.02204 12.185 2.9112 11.8963C2.81612 11.6619 2.70349 11.31 2.67257 10.6622C2.63933 9.9612 2.63241 9.75072 2.63241 7.97605C2.63241 6.20138 2.63933 5.9909 2.67257 5.2899C2.70349 4.64206 2.81565 4.29023 2.9112 4.05582C3.03629 3.74565 3.18676 3.52409 3.42863 3.29145C3.652 3.0708 3.92409 2.90106 4.22485 2.79472C4.46902 2.70344 4.83551 2.59532 5.51034 2.56563C6.24055 2.53373 6.4598 2.52708 8.30842 2.52708Z" fill="black"/>
<path fill-rule="evenodd" clip-rule="evenodd" d="M8.30843 10.1938C8.00505 10.1938 7.70464 10.1365 7.42436 10.025C7.14407 9.91356 6.8894 9.7502 6.67488 9.54426C6.46036 9.33832 6.29019 9.09384 6.17409 8.82476C6.05799 8.55569 5.99824 8.2673 5.99824 7.97605C5.99824 7.68481 6.05799 7.39642 6.17409 7.12734C6.29019 6.85827 6.46036 6.61378 6.67488 6.40784C6.8894 6.2019 7.14407 6.03854 7.42436 5.92709C7.70464 5.81563 8.00505 5.75827 8.30843 5.75827C8.92113 5.75827 9.50874 5.99193 9.94198 6.40784C10.3752 6.82376 10.6186 7.38786 10.6186 7.97605C10.6186 8.56425 10.3752 9.12835 9.94198 9.54426C9.50874 9.96018 8.92113 10.1938 8.30843 10.1938ZM8.30843 4.55965C7.36459 4.55965 6.4594 4.91959 5.79201 5.56029C5.12461 6.20099 4.74967 7.06997 4.74967 7.97605C4.74967 8.88214 5.12461 9.75112 5.79201 10.3918C6.4594 11.0325 7.36459 11.3925 8.30843 11.3925C9.25227 11.3925 10.1575 11.0325 10.8249 10.3918C11.4922 9.75112 11.8672 8.88214 11.8672 7.97605C11.8672 7.06997 11.4922 6.20099 10.8249 5.56029C10.1575 4.91959 9.25227 4.55965 8.30843 4.55965ZM12.9025 4.49761C12.9025 4.71179 12.8139 4.9172 12.6561 5.06865C12.4984 5.2201 12.2844 5.30518 12.0613 5.30518C11.8382 5.30518 11.6242 5.2201 11.4664 5.06865C11.3087 4.9172 11.2201 4.71179 11.2201 4.49761C11.2201 4.28343 11.3087 4.07802 11.4664 3.92657C11.6242 3.77512 11.8382 3.69003 12.0613 3.69003C12.2844 3.69003 12.4984 3.77512 12.6561 3.92657C12.8139 4.07802 12.9025 4.28343 12.9025 4.49761Z" fill="black"/>
</svg>
