<svg width="85" height="87" viewBox="0 0 85 87" fill="none" xmlns="http://www.w3.org/2000/svg">
<path d="M32.2958 33.6121L28.2427 40.6556V45.7467C28.2427 46.0103 28.3004 46.2987 28.4157 46.6117C28.531 46.9248 28.6546 47.1719 28.7864 47.3531L28.9594 47.625H25.104C25.5818 46.966 25.8207 46.3399 25.8207 45.7467V41.0263L21.5699 33.6121C21.4216 33.3485 21.2321 33.0602 21.0015 32.7471C20.7873 32.4341 20.6061 32.1869 20.4578 32.0057L20.2353 31.7339H23.8436C23.7283 32.3599 23.8518 32.986 24.2143 33.6121L27.9708 40.2108L31.7521 33.6121C31.9169 33.332 32.0075 33.0355 32.024 32.7224C32.0404 32.4094 32.0157 32.1705 31.9498 32.0057L31.851 31.7339H33.6551C33.2267 32.1622 32.7736 32.7883 32.2958 33.6121ZM47.1584 31.7339H48.9131C48.4847 32.3929 48.2706 33.019 48.2706 33.6121V47.625H46.9854L36.6549 33.2908C36.6549 33.3238 36.6467 33.3815 36.6302 33.4638C36.6302 33.5297 36.6302 33.5792 36.6302 33.6121V45.7467C36.6302 46.0103 36.6797 46.2987 36.7785 46.6117C36.8938 46.9248 37.0092 47.1719 37.1245 47.3531L37.2728 47.625H35.5181C35.9465 46.966 36.1607 46.3399 36.1607 45.7467V33.6121C36.1607 33.3485 36.103 33.0602 35.9877 32.7471C35.8888 32.4341 35.79 32.1869 35.6911 32.0057L35.5181 31.7339H38.1625L47.801 45.1289V33.6121C47.801 33.3485 47.7433 33.0602 47.628 32.7471C47.5291 32.4341 47.422 32.1869 47.3067 32.0057L47.1584 31.7339ZM59.0075 32.0551C57.5905 32.0551 56.3713 32.7718 55.3498 34.2053C54.3283 35.6222 53.8422 37.4675 53.8917 39.7412C53.9246 41.7348 54.5095 43.4401 55.6464 44.857C56.7832 46.2575 58.3072 46.9577 60.2185 46.9577C62.1297 46.9577 63.6455 46.4058 64.7658 45.3019L65.2354 45.6232C63.8349 47.1554 61.8908 47.9216 59.4029 47.9216C56.8821 47.9216 54.8555 47.1307 53.3232 45.549C51.8074 43.9508 51.0495 42.0067 51.0495 39.7165C51.0495 37.1627 51.8486 35.1444 53.4468 33.6616C55.045 32.1787 57.0551 31.4373 59.477 31.4373C60.3667 31.4373 61.1741 31.5197 61.899 31.6844C62.6404 31.8492 63.2089 32.0551 63.6043 32.3023C63.9997 32.5329 64.3292 32.7718 64.5928 33.019C64.8729 33.2661 65.0624 33.4721 65.1613 33.6368L65.2848 33.884H62.3686C62.3521 33.8346 62.3191 33.7686 62.2697 33.6863C62.2368 33.6039 62.1297 33.4556 61.9484 33.2414C61.7837 33.0272 61.586 32.846 61.3553 32.6977C61.1411 32.5329 60.8198 32.3847 60.3915 32.2529C59.9796 32.121 59.5182 32.0551 59.0075 32.0551Z" fill="#272727"/>
<g opacity="0.9992">
<path opacity="0.9992" d="M1.71479 34.5179C1.73756 34.5227 1.76033 34.525 1.78231 34.525C1.92679 34.525 2.05634 34.4245 2.08853 34.2785C6.36235 14.7805 23.9743 0.628156 43.9661 0.628156C53.7999 0.628156 63.406 4.04061 71.0169 10.2382C71.1511 10.3473 71.349 10.3277 71.4589 10.1926C71.5689 10.0583 71.5484 9.86047 71.4134 9.75054C67.617 6.65923 63.3675 4.24947 58.7851 2.58957C54.0425 0.871565 49.0565 0 43.9661 0C38.8757 0 33.8905 0.870779 29.1487 2.58878C24.5663 4.24869 20.3176 6.65766 16.5212 9.74897C12.757 12.8136 9.55182 16.4545 6.99365 20.5697C4.3868 24.7643 2.52982 29.3317 1.4753 34.1434C1.43761 34.3138 1.54519 34.481 1.71479 34.5179Z" fill="#6B4B2F"/>
<path opacity="0.9992" d="M1.15327 44.1687C1.79031 44.1687 2.30672 43.6523 2.30672 43.0153C2.30672 42.3782 1.79031 41.8618 1.15327 41.8618C0.51624 41.8618 -0.000183105 42.3782 -0.000183105 43.0153C-0.000183105 43.6523 0.51624 44.1687 1.15327 44.1687Z" fill="#6B4B2F"/>
<path opacity="0.9992" d="M82.3474 58.4288C82.3482 58.4264 82.3498 58.4248 82.3506 58.4224C82.3474 58.4288 82.3433 58.4353 82.3401 58.4418C82.3433 58.4377 82.3458 58.4329 82.3474 58.4288Z" fill="#272727"/>
<path opacity="0.9992" d="M80.0765 62.5275C80.59 61.7894 79.6164 63.0952 79.4146 63.3872C80.6018 61.674 79.0832 63.7618 78.5862 64.4614C78.5862 64.4614 78.5862 64.4606 78.587 64.4606C77.2631 66.1174 78.8665 64.2769 79.3329 63.5074C79.5912 63.1957 79.8394 62.8604 80.0765 62.5275Z" fill="#272727"/>
<path opacity="0.9992" d="M79.8976 62.2605C80.572 61.1856 79.2333 63.1784 78.8643 63.6134C79.2254 63.1972 79.6023 62.7395 79.8976 62.2605Z" fill="#272727"/>
<path opacity="0.9992" d="M78.8633 63.6125C78.8569 63.6198 78.8512 63.6271 78.8447 63.6344C78.8512 63.6279 78.8569 63.6206 78.8633 63.6125Z" fill="#272727"/>
<path opacity="0.9992" d="M78.4839 63.6611C78.4839 63.6603 78.4847 63.6596 78.4847 63.6588C76.9944 65.4372 79.1726 63.0251 79.5722 62.1661C79.6484 61.9997 78.7588 63.3384 78.4839 63.6611Z" fill="#272727"/>
<path opacity="0.9992" d="M80.6727 61.5671C80.6727 61.5663 80.6727 61.5663 80.6735 61.5655C80.6468 61.6142 80.6193 61.6629 80.5919 61.7115C80.5919 61.7115 80.5926 61.7115 80.5926 61.7108C80.1773 62.4237 79.7321 63.1194 79.2413 63.7829C79.2405 63.7845 79.239 63.786 79.2382 63.7876C79.2382 63.7876 79.2382 63.7876 79.2382 63.7868C78.4577 64.8013 79.2986 63.7742 79.8498 63C79.564 63.4303 79.2468 63.903 79.1118 64.0695C79.5758 63.541 79.9739 62.9058 80.3461 62.2942C80.4772 62.0649 80.3681 62.2219 80.1678 62.5219C80.1812 62.4983 80.1937 62.4763 80.204 62.4567C80.3296 62.2714 80.3767 62.1725 80.2157 62.4104C80.295 62.2785 80.3728 62.1465 80.4474 62.0123C80.5039 61.9165 80.7465 61.4595 80.6727 61.5671Z" fill="#272727"/>
<path opacity="0.9992" d="M73.5008 57.2751C73.4999 57.2779 73.4999 57.2797 73.499 57.2824C73.499 57.2806 73.4999 57.2797 73.4999 57.2779C73.4999 57.2779 73.5008 57.2761 73.5008 57.2751Z" fill="#272727"/>
<path opacity="0.9992" d="M82.8251 48.3589C82.8251 48.3597 82.8251 48.3597 82.8251 48.3605C82.8235 48.3683 82.822 48.3761 82.8212 48.384C82.822 48.3754 82.8235 48.3675 82.8251 48.3589Z" fill="#272727"/>
<path opacity="0.9992" d="M84.3408 52.893C84.3415 52.8938 84.3415 52.8938 84.3415 52.8938C84.3376 52.8647 84.3321 52.9205 84.3321 52.9346C84.3321 52.9346 84.3321 52.9346 84.3313 52.9346C84.3321 52.8899 84.3211 52.9809 84.3172 53.0037C84.3086 53.0131 84.3093 53.032 84.3038 53.0437C84.307 53.0304 84.3188 52.9739 84.307 52.9966C84.2976 53.0359 84.2795 53.0948 84.2701 53.1285C84.2544 53.1804 84.2238 53.2243 84.1963 53.2707C83.2713 54.4108 82.6008 55.7095 81.96 57.0247C81.9655 57.0137 81.9718 57.0035 81.9773 56.9925C80.7563 59.8608 78.7761 62.2211 76.9254 64.6803C75.8072 66.2892 75.3487 68.2773 74.3868 69.9278C74.6821 68.4351 74.5093 66.9087 74.6703 65.4066C74.7033 65.0517 74.7849 64.6796 74.9671 64.3584C76.711 62.0429 77.3023 59.2774 78.3324 56.6266C80.2004 54.121 82.0496 51.4412 82.8238 48.3601C83.181 46.4748 83.3129 44.3501 83.0248 42.5213C83.0224 42.5096 83.0201 42.4978 83.0177 42.486C83.0177 42.4829 83.0138 42.4805 83.0122 42.4837C83.0145 42.6289 83.0656 43.1699 83.0287 43.4589C83.0287 43.4581 83.0271 43.473 83.0271 43.4722C83.0169 43.6246 83.0091 43.7062 82.9824 43.8562C82.9722 43.9135 82.9541 44.0014 82.947 44.0289C82.8536 44.4977 82.7711 44.9704 82.6118 45.4226C81.1764 49.6399 76.2446 52.0929 73.6252 55.7103C72.639 56.7805 72.8887 58.7678 72.9641 60.2699C72.8345 62.1685 73.1933 63.9399 73.9723 65.6775C73.9715 65.676 73.9715 65.6736 73.9707 65.672C74.1183 66.0238 74.3201 66.3669 74.3107 66.7619C74.3099 66.7548 74.3099 66.7493 74.3091 66.743C74.3122 66.8011 74.3177 66.8585 74.3209 66.9166C74.3209 66.9142 74.3209 66.9119 74.3201 66.9095C74.3421 67.9075 74.2533 68.9416 74.0649 69.9184C74.0688 69.9003 74.0736 69.8822 74.0759 69.8642C73.6653 73.2036 68.1862 78.5916 68.1453 78.6466C68.5057 78.1488 69.0169 76.8493 69.2422 76.4473C69.2399 76.452 69.2375 76.4559 69.2352 76.4598C69.2501 76.4323 69.2729 76.3727 69.2878 76.3444C69.287 76.346 69.2862 76.3475 69.2854 76.3491C69.364 76.2038 69.448 76.0138 69.5218 75.867C69.5194 75.8701 69.5171 75.8741 69.5147 75.878C69.5422 75.8293 69.5673 75.7798 69.5932 75.7312C69.5924 75.7319 69.5924 75.7335 69.5917 75.7343C69.5995 75.721 69.6066 75.7068 69.6144 75.6927C69.6144 75.6935 69.6136 75.6943 69.6136 75.6943C69.9175 75.1038 70.442 73.9189 70.4412 73.9221C71.8248 71.0279 71.4078 68.7657 70.8307 66.2955C70.7545 65.7325 70.4436 64.2972 70.1876 62.8681C69.8775 61.1383 70.168 59.7132 69.36 58.6665C69.4699 58.8087 69.6764 59.6936 69.6827 60.9279C69.6976 63.8339 69.2014 68.7296 69.5163 71.1024C69.656 72.1577 69.5665 73.3112 69.5626 74.3524C69.5618 74.6193 69.583 74.9114 69.5053 75.1705C69.3043 75.8395 68.6007 77.6659 67.6436 78.7997C67.2753 79.2355 67.0044 79.4938 66.5686 79.8472C66.2318 80.1204 65.8855 80.341 65.4694 80.6025C65.4521 80.6088 65.4356 80.6159 65.4199 80.6253C58.9295 84.3848 51.5102 86.3713 43.966 86.3713C23.4811 86.3713 5.78202 71.7997 1.88196 51.723C1.84898 51.5527 1.68487 51.4412 1.5137 51.4749C1.34331 51.5079 1.2326 51.6728 1.26558 51.8432C3.16339 61.6141 8.44461 70.5245 16.1364 76.9341C19.9618 80.122 24.26 82.6079 28.9107 84.3243C33.724 86.1004 38.7892 87.0003 43.9668 87.0003C51.6217 87.0003 59.1493 84.9839 65.7355 81.1694C65.7528 81.1592 65.7678 81.1482 65.7819 81.1357C66.2357 80.8663 66.8333 80.3748 67.2431 80.0136C67.7323 79.5833 68.0676 79.285 68.5128 78.8209C69.6089 77.6784 70.4444 76.7519 71.3827 75.593C72.7018 73.9637 73.8372 72.1091 74.6671 69.978C78.6261 65.219 80.2373 66.107 82.1422 59.3057L82.1414 59.3065C82.2058 59.1895 82.2851 59.0819 82.3456 58.9626C82.3448 58.9649 82.3432 58.9665 82.3424 58.9688C83.3318 57.6568 83.5752 56.0291 83.7252 54.439C83.7864 54.2404 83.8492 54.0425 83.9678 53.8706C83.9662 53.8721 83.9654 53.8737 83.9646 53.8753C84.0934 53.6083 84.2756 53.2997 84.3376 53.0335C84.3478 52.9872 84.34 52.9401 84.3408 52.893ZM83.0939 43.835C83.0931 43.8609 83.0931 43.8868 83.0915 43.9127C83.0915 43.9119 83.0923 43.9111 83.0923 43.9104C83.0907 43.9339 83.0876 43.9567 83.0837 43.9802C83.0868 43.9323 83.0907 43.8837 83.0939 43.835ZM83.0774 44.5841C83.0782 44.6374 83.0789 44.6901 83.0789 44.7435C83.0782 44.7317 83.075 44.7199 83.0734 44.7073C83.0742 44.6665 83.0758 44.6249 83.0774 44.5841ZM83.0044 43.9174C83.0044 43.9182 83.0044 43.9182 83.0044 43.919C83.0044 43.9182 83.0044 43.9174 83.0044 43.9174ZM69.861 74.2738C69.8672 74.2511 69.8743 74.2283 69.8806 74.2047C69.8751 74.2275 69.8704 74.2519 69.861 74.2738ZM69.8201 73.4415C69.8044 73.5687 69.7824 73.6944 69.7432 73.8169C69.7707 73.692 69.7691 73.5593 69.8201 73.4415ZM69.7573 63.3314C69.7589 63.3345 69.7605 63.3377 69.762 63.3408C69.762 63.3392 69.7612 63.3384 69.7597 63.3384C69.7589 63.3384 69.7581 63.34 69.7573 63.34C69.7581 63.3377 69.7581 63.3345 69.7573 63.3314ZM69.7997 73.4627C69.8563 73.1031 69.8995 72.7396 69.9497 72.3784C69.9662 72.2606 69.9858 72.1436 69.9976 72.0243C69.9693 72.4969 69.8892 72.994 69.7997 73.4627ZM70.3054 71.2658C70.2332 71.8319 70.1633 72.4019 69.9905 72.9476C70.1264 72.3925 70.2175 71.8295 70.3054 71.2658ZM70.1052 69.2643C70.2182 70.1272 70.1444 70.9988 70.0416 71.8602C70.0314 71.9253 70.0227 71.9913 70.0125 72.0565C70.0628 71.1323 70.1217 70.1955 70.1052 69.2643ZM70.0439 66.5727C70.0251 66.4965 70.0266 66.4038 69.9631 66.3607C69.9764 66.1793 69.9858 65.9971 69.989 65.8157C69.9992 65.9209 70.0102 66.0254 70.0204 66.1298C69.9693 65.9869 70.084 66.4588 70.0439 66.5727ZM69.9693 66.3716C69.974 66.3779 69.9795 66.3842 69.9842 66.3897C69.9984 66.4156 70.0055 66.4447 70.011 66.4737C70.011 66.4737 70.011 66.4737 70.011 66.4729C70.1256 67.7245 70.3596 68.9832 70.2182 70.2403C70.2316 69.6011 70.2449 68.5278 70.19 69.7841C70.1648 69.3797 70.146 68.9738 70.1201 68.5694C70.0863 67.8345 69.9984 67.1003 69.9615 66.3669C69.9638 66.3685 69.9662 66.3701 69.9686 66.3724C69.9701 66.3724 69.9701 66.3724 69.9693 66.3716ZM70.1405 67.1647C70.1413 67.2008 70.1421 67.2361 70.1429 67.2723C70.124 67.0124 70.0455 66.754 70.0588 66.4949C70.0832 66.7187 70.1091 66.9417 70.1405 67.1647ZM70.1381 65.5079C70.1837 65.7694 70.2332 66.0301 70.2748 66.2915C70.2779 66.5962 70.2669 66.9001 70.2638 67.2047C70.1374 66.6253 70.1546 66.0269 70.1256 65.4365C70.1303 65.4859 70.1381 65.6116 70.1381 65.5079ZM70.1319 64.8413C70.1782 65.1075 70.2402 65.3729 70.2504 65.6438C70.2096 65.4357 70.1719 65.2268 70.1405 65.018C70.1287 64.9599 70.1342 64.9002 70.1319 64.8413ZM70.3486 66.7533C70.4436 67.3657 70.4538 67.9868 70.4931 68.6039C70.5064 68.889 70.5198 69.174 70.5315 69.4582C70.5205 69.3829 70.5166 69.2973 70.5056 69.2313C70.4648 68.8466 70.4145 68.4626 70.3588 68.0794C70.6854 69.9757 70.1892 67.2793 70.3117 66.5177C70.336 66.6284 70.3525 67.0736 70.3486 66.7533ZM70.5912 71.8978C70.6014 71.7337 70.6085 71.5704 70.6407 71.4087C70.643 71.3961 70.6438 71.3828 70.6462 71.3702C70.6312 71.5461 70.6328 71.7251 70.5912 71.8978ZM70.6807 72.2802C70.6784 72.2928 70.6768 72.3054 70.6744 72.3171C70.6642 72.3697 70.654 72.4216 70.6422 72.4734C70.6548 72.409 70.6674 72.3446 70.6807 72.2802ZM70.5943 72.7568C70.5928 72.7623 70.592 72.7686 70.5912 72.7741C70.5912 72.7733 70.592 72.7725 70.592 72.7718C70.5834 72.804 70.5763 72.8369 70.5653 72.8683C70.5645 72.8723 70.5622 72.8754 70.5614 72.8793C70.5669 72.8369 70.5786 72.7961 70.5943 72.7568ZM70.4428 71.7408C70.4734 71.3506 70.537 70.965 70.57 70.5748C70.5818 70.8543 70.5182 71.1307 70.4915 71.4087C70.4915 71.4063 70.4923 71.4032 70.4923 71.4C70.475 71.5131 70.4601 71.6277 70.4428 71.7408ZM70.3501 71.7557C70.4255 70.9721 70.303 71.9512 70.2575 72.2661C70.2606 72.0125 70.4412 70.9839 70.3949 71.1307C70.424 70.8818 70.453 70.3589 70.4632 70.0173C70.4758 70.596 70.4444 71.1755 70.3501 71.7557ZM70.3164 72.4844C70.2716 72.789 70.2363 73.1016 70.1248 73.3905C70.1947 73.0968 70.2559 72.8024 70.3093 72.5064C70.3117 72.4993 70.314 72.4922 70.3164 72.4844ZM70.3501 70.6101C70.3399 70.68 70.3305 70.7499 70.3203 70.819C70.3384 70.5442 70.3517 70.2694 70.3564 69.9938C70.3886 70.2026 70.3878 70.4075 70.3486 70.6156C70.3494 70.614 70.3494 70.6125 70.3501 70.6101ZM70.5056 70.8732C70.5323 70.658 70.519 70.6816 70.4907 70.8795C70.5056 70.4759 70.504 70.0723 70.5064 69.6687C70.5755 70.0683 70.5873 70.4743 70.5056 70.8732ZM70.413 69.1206C70.3965 69.0138 70.391 69.0735 70.424 69.4904C70.4232 69.4896 70.424 69.4881 70.424 69.4873C70.4279 69.7252 70.42 69.9639 70.4012 70.2018C70.3533 69.8257 70.3486 68.1046 70.3274 69.0696C70.3007 68.4775 70.2033 67.8886 70.1593 67.2997C70.2669 67.9043 70.3588 68.5121 70.413 69.1206ZM70.1012 72.1318C70.1091 72.0557 70.117 71.9795 70.1256 71.9041C70.23 71.0757 70.2834 70.2427 70.2983 69.408C70.3235 70.3157 70.2292 71.2328 70.1012 72.1318ZM70.1185 72.822C70.102 72.9861 70.0526 73.1424 70.0125 73.3018C70.0392 73.1958 70.0628 73.0905 70.0855 72.9822C70.0965 72.9288 70.1075 72.8754 70.1185 72.822ZM70.0196 74.3021C70.0172 74.31 70.0149 74.3178 70.0117 74.3257C70.0094 74.3265 70.0062 74.3249 70.0039 74.3265C70.0109 74.3115 70.018 74.2966 70.0251 74.2817C70.0227 74.2888 70.0211 74.295 70.0196 74.3021ZM70.0376 74.1828C70.0557 74.1137 70.0824 74.0461 70.1052 73.9786C70.0895 74.0485 70.0628 74.1152 70.0376 74.1828ZM70.0486 73.7148C70.0604 73.6685 70.0714 73.6221 70.0824 73.5758C70.0871 73.5499 70.095 73.5256 70.1075 73.502C70.0887 73.5727 70.0714 73.6449 70.0486 73.7148ZM70.1146 73.9425C70.1154 73.937 70.113 73.9315 70.113 73.926C70.1224 73.893 70.1319 73.8608 70.1421 73.8278C70.1334 73.8663 70.1256 73.9048 70.1146 73.9425ZM70.2716 73.4753C70.2661 73.4957 70.2591 73.5161 70.2536 73.5365C70.2787 73.4384 70.3038 73.3402 70.3289 73.2413C70.3305 73.2397 70.3321 73.2389 70.3337 73.2374C70.3132 73.3175 70.292 73.396 70.2716 73.4753ZM70.336 73.2264C70.3344 73.228 70.3329 73.2288 70.3313 73.2303C70.336 73.213 70.34 73.195 70.3447 73.1777C70.3439 73.1942 70.3392 73.2107 70.336 73.2264ZM70.3297 72.9107C70.3431 72.8401 70.3627 72.7726 70.3792 72.7027C70.3698 72.7741 70.3501 72.8424 70.3297 72.9107ZM70.3847 73.3018C70.3996 73.2586 70.3996 73.2107 70.424 73.1714C70.424 73.1793 70.4247 73.1871 70.4255 73.195C70.4208 73.2343 70.4028 73.268 70.3847 73.3018ZM70.4326 73.1612C70.4326 73.1596 70.4318 73.1573 70.4318 73.1557C70.4326 73.1534 70.4342 73.1518 70.435 73.1494C70.4342 73.1534 70.4334 73.1573 70.4326 73.1612ZM70.435 73.1204C70.4334 73.1251 70.431 73.129 70.4295 73.1337C70.4295 73.0874 70.4506 73.0427 70.4663 72.9995C70.4561 73.0403 70.4538 73.0827 70.435 73.1204ZM70.4671 73.1447C70.4828 73.0874 70.4907 73.0285 70.5158 72.9743C70.5166 72.9751 70.5166 72.9759 70.5174 72.9751C70.5143 73.0356 70.5033 73.0945 70.4671 73.1447ZM70.5653 71.8798C70.5669 71.8696 70.5684 71.8594 70.57 71.8492C70.5731 71.9716 70.5527 72.091 70.5205 72.2096C70.5339 72.0996 70.5472 71.9889 70.5653 71.8798ZM70.5331 73.0254C70.537 73.0018 70.5409 72.9783 70.5449 72.9547C70.5457 72.9492 70.5472 72.9437 70.548 72.9382C70.5731 72.9217 70.5904 72.9021 70.6045 72.877C70.5841 72.9288 70.5614 72.9783 70.5331 73.0254ZM71.0537 70.4602C70.954 71.2768 70.8809 72.1405 70.5755 72.906C70.5669 72.9147 70.5582 72.9225 70.5504 72.9304C71.0356 71.5312 70.9602 70.0385 70.9438 68.5796C71.0278 69.2015 71.0906 69.8328 71.0537 70.4602ZM70.4687 65.8212C70.4687 65.8196 70.4687 65.8173 70.4687 65.8149C70.5229 66.6072 70.5669 67.3241 70.5307 66.0992C70.5849 66.4368 70.6729 66.7666 70.7467 67.1003C70.7624 67.1725 70.7765 67.2456 70.7914 67.317C70.7906 67.3139 70.7899 67.31 70.7891 67.3068C70.888 67.7418 70.8841 68.1854 70.877 68.6291C70.8016 67.9412 70.6642 67.2597 70.5849 66.5742C70.6988 67.9679 71.0388 69.353 70.7742 70.7632C70.7679 70.1979 70.7537 71.3576 70.6658 71.5673C70.6736 70.9925 70.9014 68.8584 70.7239 70.3094C70.7278 70.1461 70.782 69.251 70.7388 69.7009C70.742 69.0766 70.7027 67.8965 70.6257 67.5565L70.625 67.5557C70.6729 68.41 70.7035 69.2753 70.6305 70.1296C70.6305 69.9788 70.6265 69.8281 70.6226 69.6781C70.6634 68.5851 70.4035 66.2342 70.2465 64.7298C70.369 65.0824 70.4381 65.4482 70.4687 65.8212ZM70.102 64.1433C70.1334 64.3309 70.1468 64.5217 70.1696 64.711V64.7102C70.1696 64.7133 70.1703 64.7157 70.1703 64.7188C70.1782 64.7965 70.186 64.8751 70.1939 64.9528C70.1272 64.7125 70.1154 64.4683 70.102 64.2202C70.113 64.2516 70.1028 64.1637 70.102 64.1433ZM70.0698 65.8032C70.0345 65.4396 69.9897 65.0769 69.9772 64.7125C70.0117 65.0635 70.0384 65.4145 70.0714 65.7647C70.0706 65.7772 70.0706 65.7898 70.0698 65.8032ZM70.0259 64.3144C70.0078 64.2076 69.9898 64.1009 69.9709 63.9949C69.978 64.0145 69.9811 64.0365 69.9858 64.0561C69.9984 64.1213 70.0094 64.1864 70.0211 64.2516C70.0227 64.272 70.0243 64.2932 70.0259 64.3144ZM69.9756 63.6855C69.9882 63.8331 69.9992 63.9807 70.0117 64.1283C69.996 64.0812 69.9992 64.0161 69.9686 63.9815C69.9536 63.8786 69.9528 63.7734 69.9458 63.669C69.9544 63.6761 69.963 63.6855 69.9756 63.6855ZM69.8806 65.0776C69.8955 65.175 69.8837 64.7353 69.8892 64.6497C69.9167 64.9363 69.9214 66.3905 69.9418 65.9461C69.9426 66.0426 69.9395 66.1384 69.9379 66.235C69.9379 66.2374 69.9379 66.2397 69.9379 66.2429C69.8987 65.855 69.8445 65.4687 69.8806 65.0776ZM69.8798 65.9586C69.9034 66.1486 69.9199 66.8734 69.9309 66.7957C70.0023 67.8981 70.0989 68.9958 70.0502 70.1013C70.0251 69.108 69.9371 68.1195 69.8673 67.1286C69.8406 66.7399 69.8971 66.3489 69.8798 65.9586ZM69.8335 66.5459C69.8335 66.5695 69.8327 66.5939 69.8327 66.6174C69.8233 66.4714 69.8162 66.3261 69.8092 66.1801C69.8154 66.1824 69.8225 66.1816 69.8296 66.1816C69.8319 66.3025 69.8335 66.4242 69.8335 66.5459ZM69.8256 65.9602C69.8264 66.001 69.8272 66.0426 69.828 66.0835C69.8241 66.0835 69.8202 66.0819 69.8162 66.0827C69.8194 66.0419 69.8225 66.001 69.8256 65.9602ZM69.8029 65.8204C69.8013 65.8668 69.7997 65.9139 69.7981 65.9602C69.7785 65.7278 69.7919 65.4969 69.8115 65.2653C69.8201 65.4498 69.8107 65.6359 69.8029 65.8204ZM69.8029 64.2524C69.7982 64.1456 69.795 64.0388 69.7895 63.932C69.7997 64.0388 69.806 64.1456 69.8029 64.2524ZM69.7644 63.3628C69.7636 63.3557 69.7636 63.3494 69.7628 63.3424C69.7667 63.3487 69.7644 63.3557 69.7644 63.3628ZM69.7573 63.194C69.7589 63.2379 69.7612 63.2819 69.7636 63.3259C69.7612 63.3219 69.7597 63.3172 69.7566 63.3133C69.7542 63.2733 69.7558 63.234 69.7573 63.194ZM69.7432 63.5795C69.7518 63.8888 69.744 64.1982 69.7471 64.5076C69.7432 64.3427 69.7385 64.177 69.7377 64.0121C69.7361 63.8684 69.7361 63.7232 69.7432 63.5795ZM69.857 73.831C69.7997 74.0179 69.7526 74.2079 69.6906 74.3932C69.7408 74.204 69.7879 74.0139 69.857 73.831ZM74.3201 60.3775C74.3217 60.2087 74.3546 60.0422 74.3727 59.8742C74.4473 59.6425 74.54 59.4164 74.6208 59.1871C74.6852 59.0136 74.7465 58.8393 74.8085 58.6657C74.7229 58.9296 74.6452 59.1973 74.5776 59.4666C74.5666 59.4038 74.4269 60.178 74.3201 60.3775ZM74.3468 60.4159C74.3374 60.4654 74.3264 60.5141 74.3193 60.5636C74.3193 60.54 74.3201 60.5165 74.3193 60.4929C74.3185 60.4654 74.3382 60.4419 74.3468 60.4159ZM74.4449 59.4258C74.5502 59.096 74.6726 58.771 74.7873 58.4443C74.6774 58.7725 74.5588 59.0984 74.4449 59.4258ZM74.8532 58.8039C74.7928 59.0034 74.7355 59.2044 74.675 59.4038C74.7308 59.202 74.7889 59.0026 74.8532 58.8039ZM74.5847 59.9495C74.5714 60.0053 74.558 60.0602 74.5454 60.116C74.5462 60.1011 74.547 60.0854 74.5478 60.0704C74.5611 60.0304 74.5729 59.9904 74.5847 59.9495ZM74.4685 60.3296C74.4583 60.4159 74.4449 60.5015 74.4347 60.5879C74.4324 60.6177 74.4237 60.6468 74.4182 60.6758C74.4135 60.5573 74.423 60.4419 74.4685 60.3296ZM74.4426 63.4201C74.4426 63.4217 74.4426 63.4232 74.4418 63.4256C74.4559 63.3588 74.4693 63.2929 74.4834 63.2269C74.5046 63.1453 74.5258 63.0652 74.5462 62.9835C74.5046 63.2819 74.4614 63.5795 74.4025 63.8747C74.401 63.7216 74.4167 63.5701 74.4426 63.4201ZM74.5085 64.8295C74.5313 64.6434 74.5399 64.4534 74.5957 64.2728C74.6334 64.1291 74.6711 63.987 74.7103 63.8433C74.6467 64.1723 74.5611 64.4982 74.5085 64.8295ZM75.1006 61.1964C75.2663 60.2479 75.0409 61.4249 74.8964 61.7963C75.0354 60.8164 75.4728 59.9063 75.7806 58.972C75.8002 58.9186 75.8198 58.8652 75.8395 58.8118C75.5756 59.6017 75.3361 60.3987 75.1006 61.1964ZM75.4688 60.7873C75.5921 60.1898 75.3856 61.0794 75.2882 61.2961C75.3361 61.081 75.3785 60.8651 75.4202 60.6491C75.4484 60.5824 75.4767 60.5157 75.505 60.4489C75.5042 60.4497 75.5042 60.4505 75.5034 60.4513C75.8088 59.765 76.0891 59.0654 76.3318 58.3548C76.1025 59.1855 75.7609 59.9778 75.4688 60.7873ZM76.4283 58.0823C76.4707 57.9646 76.5124 57.846 76.554 57.7282C76.448 58.1444 76.3318 58.5543 76.2006 58.9633C76.2909 58.6736 76.3585 58.3776 76.4283 58.0823ZM75.0385 62.0185C75.0189 62.0829 75.0008 62.1473 74.9812 62.2117C75.0378 61.9863 75.0927 61.7602 75.1461 61.5341C75.1233 61.7021 75.0833 61.8654 75.0346 62.0272C75.0362 62.024 75.0378 62.0209 75.0385 62.0185ZM75.3055 61.6754C75.2608 61.8842 75.2074 62.0915 75.1398 62.2941C75.1964 62.0884 75.2317 61.8756 75.3055 61.6754ZM75.1767 61.516C75.1964 61.2765 75.2435 61.0433 75.3479 60.8258C75.2922 61.0567 75.2388 61.2867 75.1767 61.516ZM74.9106 62.6679C74.8713 62.8453 74.8446 63.0252 74.8163 63.205C74.8265 63.0919 74.836 62.9788 74.8454 62.8658C74.8674 62.7998 74.8894 62.7338 74.9106 62.6679ZM74.7983 62.1693C74.8022 62.13 74.8053 62.0908 74.8156 62.0523C74.8218 62.0209 74.8289 61.9895 74.836 61.9581C74.8336 61.973 74.8313 61.9879 74.8289 62.0028C74.8289 62.0013 74.8289 61.9997 74.8289 61.9981C74.8187 62.0554 74.8132 62.1135 74.7983 62.1693ZM74.8705 60.7905C74.865 60.8156 74.854 60.8392 74.847 60.8635C74.8548 60.8297 74.865 60.796 74.8737 60.7622C74.8729 60.7716 74.8721 60.7811 74.8705 60.7905ZM74.8493 61.0292C74.8297 61.3362 74.7747 61.6393 74.7135 61.94C74.7253 61.7241 74.6774 62.203 74.6499 62.2831C74.6703 61.8858 74.704 61.4775 74.825 61.0967C74.832 61.0739 74.8415 61.0512 74.8493 61.0292ZM74.6954 62.3687C74.6813 62.4724 74.6656 62.5752 74.6507 62.6789C74.6569 62.6176 74.6616 62.5572 74.6671 62.4967C74.6719 62.4527 74.686 62.4111 74.6954 62.3687ZM74.6781 63.3934C74.6774 63.3958 74.6766 63.3965 74.6758 63.3989C74.7253 63.2395 74.7739 63.0793 74.8273 62.9207C74.7943 63.3157 74.6836 63.6941 74.5933 64.0773C74.6192 63.8496 74.6405 63.6203 74.6781 63.3934ZM74.5619 62.6679C74.5737 62.5956 74.5863 62.5234 74.5981 62.452C74.6122 62.3679 74.6216 62.2831 74.6334 62.1983C74.624 62.3569 74.6036 62.514 74.5619 62.6679ZM74.8525 64.009C74.8556 63.9972 74.8587 63.9854 74.8619 63.9736C74.865 63.9603 74.8697 63.9477 74.8737 63.9352C74.8705 63.9611 74.8682 63.987 74.8525 64.009ZM74.7198 64.2603C74.8242 63.8802 74.9051 63.4939 75.0166 63.1162C74.993 63.2497 74.9624 63.3801 74.9255 63.5104C74.8564 63.7601 74.7904 64.0137 74.7198 64.2603ZM74.9553 63.8111C75.2953 62.3585 75.779 60.9373 76.2666 59.5287C76.1425 59.9912 76.0255 60.4536 75.8944 60.9145C76.0711 60.0296 75.7499 61.505 75.6039 61.8254C75.6227 61.7217 75.7515 61.2632 75.7154 61.3409C75.8497 60.7567 75.6102 61.666 75.5458 61.8882C75.5458 61.8866 75.5458 61.8858 75.5466 61.885C75.3887 62.4096 75.2168 62.9301 75.066 63.457C75.0668 63.4554 75.0668 63.4539 75.0676 63.4531C75.0323 63.5716 74.9954 63.6918 74.9553 63.8111ZM75.2199 63.3549C75.2278 63.3259 75.2411 63.3008 75.2631 63.2803C75.249 63.3055 75.2341 63.3298 75.2199 63.3549ZM75.2458 63.2842C75.2521 63.2678 75.2576 63.2513 75.2639 63.2348C75.2772 63.1979 75.2906 63.1602 75.3039 63.1233C75.2843 63.1767 75.2867 63.2426 75.2458 63.2842ZM76.2014 60.496C76.2195 60.4395 76.2375 60.383 76.2556 60.3264C75.9894 61.2592 75.7931 62.2431 75.3597 63.1123C75.6274 62.236 75.9329 61.3723 76.2014 60.496ZM76.0412 61.8214C76.1143 61.6542 76.1959 61.4916 76.265 61.3236C76.1339 61.6856 76.002 62.0507 75.7908 62.3726C75.7963 62.3585 75.8018 62.3436 75.8072 62.3302C75.8928 62.163 75.9698 61.9926 76.042 61.8191C76.042 61.8199 76.042 61.8207 76.0412 61.8214ZM82.4602 49.0047C82.3825 49.2552 82.2804 49.4994 82.176 49.7396C82.322 49.3604 82.4594 48.9788 82.5749 48.5901C82.5419 48.7291 82.5034 48.8673 82.4602 49.0047ZM82.8944 45.5907C82.8866 45.6394 82.8771 45.6873 82.8622 45.7344C82.8528 45.7681 82.8434 45.8027 82.834 45.8364C82.8552 45.7548 82.8748 45.6723 82.8944 45.5907ZM82.8418 46.8446C82.8285 46.909 82.8151 46.9742 82.8002 47.0386C82.8002 47.0394 82.7994 47.0409 82.7994 47.0417C82.8151 46.9765 82.8285 46.9106 82.8418 46.8446ZM82.7853 47.1045C82.4406 48.9364 81.5203 50.612 80.6064 52.1965C81.4473 50.8845 82.2435 49.5198 82.6549 48.0059C81.9961 50.6277 80.6598 53.1333 78.9504 55.2234C78.1 56.0605 77.7058 57.1935 77.3439 58.3038C77.6799 56.6109 76.7361 60.8289 76.3027 61.4814C76.4943 61.0614 77.0651 59.0081 76.7024 60.1341C76.9128 58.9288 77.1727 57.7164 77.6619 56.5897C77.6611 56.5913 77.6603 56.5928 77.6603 56.5944C78.7808 54.4649 77.2842 56.9941 77.0573 58.0698C77.2858 56.5763 76.5485 60.6923 76.1402 61.4398C76.1386 61.443 76.1378 61.4453 76.1363 61.4485C76.3522 60.7685 76.5069 60.0673 76.6239 59.3661C76.3726 60.4199 76.1111 61.4901 75.6808 62.4912C75.8983 61.8693 76.8092 58.6547 76.433 59.7532C76.6183 59.1832 76.7409 58.5927 76.8618 58.0085C76.6372 58.8644 76.4103 59.7352 76.0782 60.5612C76.3396 59.301 76.795 58.0949 77.1123 56.8519C76.9379 57.3961 76.7723 57.952 76.5783 58.493C76.8186 57.5665 76.3899 59.1259 76.2124 59.4549C76.6466 58.2221 75.5136 61.1807 75.3149 61.739C75.6957 60.6256 76.7016 57.7581 76.6293 57.4801C76.6694 57.3089 76.5344 57.7549 76.4904 57.8303C76.5296 57.674 76.1096 58.8377 75.9792 59.1345C75.98 59.1314 75.9816 59.129 75.9823 59.1259C75.8583 59.4132 75.7389 59.7045 75.6117 59.9911C76.0287 58.6814 76.4079 57.3576 76.985 56.1068C76.9843 56.1076 76.9843 56.1084 76.9835 56.1091C77.6242 54.6369 76.6113 56.7742 76.0719 58.219C76.2532 57.6764 76.4009 57.2579 76.1425 57.9112C75.8921 58.5103 75.3385 59.8797 75.0731 60.7661C75.1312 60.5 75.216 60.2408 75.2898 59.9794V59.9802C75.3267 59.8561 75.3636 59.732 75.3997 59.6088C75.3997 59.6095 75.3989 59.6111 75.3989 59.6119C75.5772 59.0199 76.0428 57.55 75.5795 58.8974C75.8693 57.992 75.0802 60.1906 74.9373 60.6028C76.0381 55.9176 78.6756 51.9217 81.6624 48.2462C81.3515 48.8555 81.0131 49.4515 80.6708 50.0435C81.207 49.2403 81.7143 48.3624 82.1273 47.4728C82.0393 47.7924 81.1905 49.2999 81.5784 48.6537C81.1238 49.5606 82.1069 47.779 82.3291 47.2726C81.7708 48.6176 80.9778 49.8716 80.2043 51.0855C80.6103 50.5704 81.0217 50.0569 81.3743 49.5033C80.6708 50.9284 82.0268 48.4213 82.2561 47.8458C81.9867 48.9741 79.8337 52.2287 81.4214 49.8056C81.1599 50.3576 80.8843 50.9041 80.6134 51.4514C81.0406 50.769 81.463 50.0286 81.8163 49.2882C81.7904 49.3557 81.7614 49.4216 81.7386 49.4884C80.9024 51.3988 81.6789 49.8213 82.0959 48.7801C82.2168 48.5571 82.4272 47.9549 82.5639 47.5984C82.3589 48.3082 82.0927 48.9992 81.8635 49.7004C82.2341 48.8822 82.589 47.9989 82.7853 47.1045ZM74.9035 61.0716C74.8941 60.7991 75.0283 60.5596 75.1069 60.3044C75.1375 60.2149 75.1697 60.1246 75.2011 60.0343C75.0927 60.3775 74.9828 60.7206 74.9035 61.0716ZM81.3437 48.3648C81.3594 48.3397 81.3751 48.3145 81.3908 48.2886C81.4049 48.2682 81.4183 48.247 81.4324 48.2266C81.4026 48.2721 81.3735 48.3185 81.3437 48.3648ZM82.5521 46.5258C82.5301 46.6256 82.494 46.7206 82.4539 46.8148C82.4908 46.7198 82.5238 46.624 82.5521 46.5258ZM82.1508 46.675C82.1493 46.679 82.1469 46.6829 82.1461 46.686C82.1642 46.6499 82.183 46.6153 82.2019 46.5792C82.1846 46.6208 82.1673 46.6625 82.1501 46.7041C82.1147 46.763 82.0802 46.8226 82.0456 46.8815C82.0802 46.8124 82.1163 46.7441 82.1508 46.675ZM81.9985 47.0551C81.836 47.3958 81.6844 47.746 81.4771 48.0617C81.3279 48.2713 81.1803 48.4826 81.0319 48.693C81.3774 48.1614 81.6946 47.611 81.9985 47.0551ZM74.0618 55.682C74.2345 55.4315 74.4033 55.1771 74.6036 54.9471C74.4559 55.3177 74.2659 55.6718 74.1497 56.0542C74.2471 55.1355 73.9259 57.0514 73.7438 57.4134C73.7814 57.1912 73.8176 56.9642 73.8482 56.742C73.7901 56.9721 73.7532 57.2178 73.699 57.4534C73.7155 57.0726 73.7359 56.6902 73.7493 56.3109C73.7453 56.0573 73.9338 55.8838 74.0618 55.682ZM73.2789 57.2131C73.3127 57.0647 73.3653 56.9203 73.4297 56.7821C73.3598 57.137 73.2836 57.4903 73.2295 57.8483C73.2326 57.6356 73.2475 57.4228 73.2789 57.2131ZM73.2577 59.2429C73.2436 59.1329 73.2326 59.0222 73.2271 58.9107C73.1957 58.4616 73.231 58.0156 73.3213 57.5751C73.3213 57.5775 73.3205 57.579 73.3205 57.5814C73.4352 57.1016 73.4399 56.5881 73.7336 56.1735C73.7178 56.2654 73.7021 56.3565 73.6864 56.4484C73.6864 56.4476 73.6872 56.4468 73.6872 56.446C73.6519 56.6289 73.6181 56.8119 73.5852 56.9956C73.5859 56.9933 73.5859 56.9909 73.5875 56.9886C73.5734 57.06 73.56 57.133 73.5467 57.2053C73.5467 57.2053 73.5467 57.2053 73.5467 57.2045C73.5459 57.2068 73.5459 57.21 73.5451 57.2131C73.5451 57.2123 73.5451 57.2123 73.5451 57.2116C73.4203 57.8507 73.3315 58.4969 73.2664 59.1455C73.2459 58.9649 73.264 59.1423 73.2577 59.2429ZM73.2742 59.4627C73.2734 59.4533 73.2726 59.4447 73.2726 59.4352C73.2734 59.4305 73.2742 59.4266 73.275 59.4219C73.275 59.436 73.2781 59.4501 73.2742 59.4627ZM73.286 59.3504C73.392 58.3556 73.5962 57.3741 73.7398 56.3848C73.6762 56.9203 73.6849 57.4683 73.5804 57.9975C73.6794 57.0655 73.5867 57.6803 73.5176 58.2425C73.4839 58.4694 73.3794 58.8825 73.33 59.1745C73.33 59.1738 73.33 59.1738 73.33 59.173C73.3166 59.2444 73.3033 59.3151 73.2899 59.3865C73.2884 59.3732 73.2868 59.3622 73.286 59.3504ZM73.2931 59.7305C73.3095 59.9472 73.3135 60.167 73.3166 60.3837C73.3166 60.3822 73.3166 60.3798 73.3166 60.3783C73.3166 60.4497 73.3166 60.5219 73.3174 60.5942C73.3127 60.5989 73.3111 60.606 73.308 60.6115C73.2844 60.3178 73.2938 60.0234 73.2931 59.7305ZM73.3268 62.3821C73.3198 62.3844 73.3135 62.3883 73.3088 62.3931C73.3237 62.335 73.3253 62.2737 73.3292 62.214C73.3331 62.2706 73.3253 62.3263 73.3268 62.3821ZM73.3684 60.5439C73.3614 60.2204 73.3402 59.8961 73.3072 59.5742C73.3559 59.3449 73.3998 59.1149 73.4493 58.8864C73.4006 59.4376 73.3881 59.9911 73.3684 60.5439ZM73.5671 63.8535C73.5702 63.87 73.5734 63.8865 73.5765 63.9022C73.5695 63.8865 73.5687 63.87 73.5671 63.8535ZM73.4917 60.2251C73.4909 60.2251 73.4901 60.2251 73.4893 60.2251C73.5255 59.6409 73.4972 59.0528 73.5388 58.4694C73.5592 58.3713 73.5797 58.2731 73.5993 58.175C73.5349 58.8565 73.553 59.5459 73.4917 60.2251ZM73.6032 63.9485C73.6095 63.9784 73.615 64.009 73.6221 64.0388C73.6103 64.0106 73.6071 63.9792 73.6032 63.9485ZM73.6299 60.1207C73.6291 60.0555 73.6291 59.9904 73.6291 59.926C73.6268 59.8702 73.6503 59.8176 73.6605 59.7634C73.6598 59.8828 73.6448 60.0021 73.6299 60.1207ZM73.6856 60.6146C73.6856 60.6075 73.6864 60.6013 73.6864 60.5942C73.6864 60.6013 73.688 60.6075 73.6856 60.6146ZM73.6967 61.3841C73.6974 61.3778 73.6974 61.3715 73.6982 61.366C73.6982 61.3723 73.699 61.3794 73.699 61.3857C73.6982 61.3849 73.6974 61.3841 73.6967 61.3841ZM73.6888 60.3916C73.7155 60.1364 73.6911 59.8773 73.7249 59.6229C73.7406 59.5185 73.7563 59.414 73.7712 59.3088C73.765 59.6716 73.7194 60.0312 73.6888 60.3916ZM73.7076 61.2671C73.7076 61.2663 73.7076 61.2655 73.7076 61.2647C73.7084 61.2765 73.7092 61.2883 73.71 61.3001C73.7092 61.2891 73.7084 61.2781 73.7076 61.2671ZM73.7493 62.1072C73.743 62.0601 73.7493 62.0115 73.7485 61.9643C73.7524 62.0115 73.7493 62.0593 73.7493 62.1072ZM73.7783 63.8975C73.7728 63.8622 73.7697 63.8268 73.7736 63.7907C73.7814 63.852 73.7893 63.9132 73.7972 63.9744C73.7909 63.9493 73.7846 63.9234 73.7783 63.8975ZM73.8019 60.4968C73.7916 60.6743 73.7814 60.8517 73.7736 61.0292C73.7744 60.8321 73.7469 60.6271 73.8058 60.4379C73.805 60.4575 73.8034 60.4772 73.8019 60.4968ZM73.7006 59.2546C73.6888 58.9837 73.6849 58.8353 73.6833 58.7733C73.6841 58.8895 73.6802 59.2711 73.6252 59.5805C73.6597 58.8542 73.5789 58.091 73.7964 57.3922C73.9039 57.0561 74.0076 56.72 74.112 56.3832C74.0814 57.1189 73.9251 57.8389 73.8168 58.5652C73.8113 57.8963 73.8034 59.0128 73.7006 59.2546ZM73.8804 58.8463C73.8592 58.9759 73.838 59.1062 73.8184 59.2366C73.8082 59.1023 73.8513 58.9759 73.8804 58.8463ZM73.8906 59.396C73.8945 59.3654 73.9 59.3355 73.9047 59.3049C73.8796 59.5381 73.8741 59.7737 73.8176 60.0021C73.8364 59.7988 73.8655 59.5978 73.8906 59.396ZM73.8882 60.9679C73.889 60.9279 73.8898 60.8871 73.8906 60.847C73.8906 60.8235 73.8922 60.7999 73.8922 60.7763C73.8898 60.8407 73.9071 60.9075 73.8882 60.9679ZM73.8812 62.0217C73.8819 62.0083 73.8772 61.9942 73.882 61.9816C73.882 61.9958 73.8812 62.0083 73.8812 62.0217ZM73.878 61.94C73.8757 61.8897 73.8741 61.8387 73.8757 61.7885C73.8741 61.7374 73.8835 61.6879 73.8914 61.6385C73.8843 61.7382 73.8945 61.8419 73.878 61.94ZM73.8827 61.2302C73.8827 61.2027 73.8835 61.1752 73.8835 61.1485C73.8843 61.1148 73.882 61.081 73.8985 61.0512C73.9024 61.1116 73.8937 61.1705 73.8827 61.2302ZM73.8992 64.7549C73.9008 64.7557 73.9024 64.7549 73.9039 64.7557C73.9079 64.7895 73.9126 64.8232 73.9173 64.857C73.9071 64.824 73.9039 64.7895 73.8992 64.7549ZM73.9212 62.8351C73.9212 62.8304 73.9204 62.8257 73.9204 62.821V62.8202L73.9212 62.821C73.9212 62.8249 73.9212 62.8296 73.9212 62.8351ZM73.9526 64.9709C73.9487 64.9442 73.9455 64.9167 73.9424 64.8892C73.9432 64.89 73.9424 64.8908 73.9432 64.8916C73.9416 64.8743 73.9401 64.8562 73.9385 64.8389C73.9511 64.9018 73.9699 64.9654 73.9723 65.0298C73.966 65.0101 73.9589 64.9905 73.9526 64.9709ZM73.922 60.8784C73.889 60.5541 73.9181 60.2306 73.944 59.9064C73.9605 59.842 73.977 59.7784 73.9942 59.7148C73.9605 60.0987 74.0547 60.5125 73.922 60.8784ZM73.9652 59.6543C73.9675 59.5915 73.9817 59.5302 73.9966 59.469C74.0005 59.5334 73.9895 59.5946 73.9652 59.6543ZM74.0327 63.6133C74.0304 63.6604 74.028 63.7083 74.0288 63.7554C74.0225 63.7075 74.0288 63.6604 74.0327 63.6133ZM74.0366 63.5442C74.0366 63.5418 74.0366 63.5402 74.0366 63.5379C74.0366 63.5402 74.0366 63.5426 74.0366 63.5442ZM74.0461 65.0761C74.0484 65.0863 74.05 65.0957 74.0523 65.1059C74.0531 65.1114 74.0539 65.1169 74.0547 65.1216C74.0516 65.1059 74.0484 65.091 74.0461 65.0761ZM74.0453 59.8734C74.0272 59.6386 74.0429 60.0422 74.0327 60.1403C74.0288 59.966 74.0233 59.7909 74.0186 59.6166C74.0358 59.5514 74.0531 59.4855 74.0712 59.4203C74.0626 59.5711 74.0523 59.7218 74.0453 59.8734ZM74.0162 59.5004C74.0154 59.4658 74.0147 59.4321 74.0131 59.3975C74.0398 59.2798 74.0673 59.1628 74.0955 59.0458C74.0877 59.2012 74.0798 59.3551 74.0162 59.5004ZM74.2588 62.331C74.2604 62.2926 74.262 62.2541 74.2636 62.2156C74.2667 62.1983 74.2699 62.1811 74.2722 62.163C74.2667 62.2188 74.2636 62.2753 74.2588 62.331ZM74.1057 59.9849C74.0688 59.7831 74.2196 58.7262 74.1293 59.1557C74.196 58.2229 74.5698 57.327 74.7386 56.4099C74.536 57.0875 74.3429 57.7777 74.156 58.4632C74.1874 57.952 74.1136 58.7812 74.0382 58.9618C74.1089 58.4608 74.1049 57.9426 74.2745 57.4628C74.2745 57.4636 74.2745 57.4644 74.2738 57.4652C74.5549 56.574 74.9302 55.7103 75.282 54.8489C74.8956 55.6584 74.5164 56.4806 74.2306 57.3348C74.3696 56.5434 74.5533 55.759 74.7237 54.9761C74.5839 55.4786 74.4575 55.9969 74.3342 56.5065C74.3201 56.4036 74.0673 57.9355 73.9196 58.3689C74.1568 57.4487 74.0021 56.4617 74.3758 55.5854C74.3751 55.5862 74.3751 55.587 74.3743 55.5878C74.5227 55.2808 74.5698 54.9196 74.8352 54.6872C74.8281 54.695 74.8211 54.7036 74.814 54.7107C76.6113 52.9338 78.5217 51.2606 80.2899 49.446C80.3779 49.358 80.4603 49.263 80.5404 49.1672C80.169 49.7373 80.7712 48.8563 80.9487 48.6639C80.4281 49.7122 77.0746 53.2518 79.0956 51.1444C76.8194 54.0669 75.3542 57.6607 74.43 61.2263C74.7669 58.7725 75.874 56.4758 76.6671 54.1611C76.0436 55.6105 75.472 57.0804 74.9796 58.5809C75.0676 58.2943 75.1493 58.0054 75.2176 57.7133V57.7141C75.3102 57.1605 75.7499 56.2049 75.812 55.8948V55.894C75.6298 56.3573 75.4335 56.8158 75.2615 57.2846C75.3212 57.1071 75.373 56.9273 75.4272 56.7475C75.3833 56.9524 75.4657 56.6635 75.4822 56.5818C75.4822 56.5826 75.4814 56.5834 75.4814 56.5842C75.6471 56.0424 75.863 55.5116 76.0836 54.9926C75.6887 55.7299 75.4523 56.5434 75.143 57.3183C75.2537 56.8849 74.7135 58.5048 74.5588 58.8408C74.9577 57.5751 75.1202 56.2104 75.6918 55.0107C75.2757 55.6953 75.1281 56.5057 74.8972 57.2649C75.088 56.3785 74.423 59.0246 74.28 59.5373C74.4858 58.3666 74.6467 57.1841 74.9341 56.0306C74.5509 57.3199 74.3633 58.6642 74.1057 59.9849ZM75.0056 58.321C75.077 58.0541 75.1618 57.7887 75.2466 57.5264C75.2458 57.5304 75.2451 57.5343 75.2443 57.5374C75.2443 57.5366 75.2435 57.5366 75.2443 57.5358C75.1681 57.7989 75.0872 58.0603 75.0056 58.321ZM74.2981 64.7031C74.2989 64.6434 74.2957 64.5837 74.2981 64.5241C74.3052 64.4079 74.3052 64.2917 74.3209 64.1762C74.3327 64.3529 74.3099 64.5272 74.2981 64.7031ZM74.3232 64.601C74.324 64.568 74.3256 64.5351 74.3272 64.5029C74.3272 64.5249 74.3272 64.5461 74.3279 64.568C74.3256 64.579 74.324 64.59 74.3232 64.601ZM74.3452 65.6705C74.3334 65.6241 74.3397 65.577 74.3492 65.5307C74.3515 65.555 74.3539 65.5786 74.3562 65.6021C74.3539 65.6257 74.3539 65.6485 74.3452 65.6705ZM74.3044 61.3001C74.313 61.0402 74.2989 60.7818 74.4049 60.5384C74.4018 60.6468 74.3915 60.7544 74.3766 60.8619C74.3594 61.0088 74.3272 61.154 74.3044 61.3001ZM83.3561 54.6314C83.3663 54.6173 83.3765 54.6023 83.3867 54.5882C83.375 54.6086 83.3632 54.6283 83.3522 54.6487C83.3538 54.6432 83.3553 54.6377 83.3561 54.6314ZM75.4586 68.1878C75.6879 67.712 76.0004 67.277 76.2721 66.8239C76.2854 66.8051 76.2988 66.7862 76.3121 66.7674C76.0436 67.2495 75.7782 67.7371 75.4586 68.1878ZM75.9831 67.5439C75.9541 67.5887 75.925 67.6342 75.8952 67.6798C75.9062 67.6609 75.9172 67.6421 75.929 67.624C75.9478 67.5981 75.9651 67.5706 75.9831 67.5439ZM75.2066 68.7586C75.2631 68.6283 75.322 68.4987 75.3793 68.3684C75.4202 68.3048 75.4633 68.2412 75.5081 68.1799C75.4045 68.3715 75.3165 68.571 75.2066 68.7586ZM76.053 67.7347C76.1598 67.5973 76.265 67.4599 76.3695 67.3209C76.1653 67.6735 75.958 68.0253 75.6722 68.3181C75.7955 68.1203 75.9313 67.9326 76.053 67.7347ZM81.6365 59.4133C81.006 62.1198 79.8565 64.7424 77.5527 66.4368C77.497 66.4847 77.442 66.5334 77.3855 66.5805C78.4212 65.3894 79.4435 64.1629 80.2161 62.7857C79.4914 63.9391 78.6073 64.9724 77.7765 66.0513C77.7765 66.0521 77.7757 66.0521 77.7757 66.0528C77.7757 66.0528 77.7757 66.0521 77.7765 66.0521C77.5457 66.3426 77.3203 66.6457 77.0322 66.8836C77.3148 66.502 77.592 66.107 77.837 65.705C77.3682 66.3261 76.9411 66.9927 76.3985 67.5541C76.8366 66.8577 78.6599 64.2532 77.42 65.9335C77.6203 65.6029 76.9003 66.6543 76.7644 66.8647C76.766 66.8624 76.7683 66.86 76.7699 66.8569C76.5964 67.1097 76.4448 67.3736 76.2658 67.6217C76.5296 67.1176 76.8751 66.6535 77.168 66.1722C76.978 66.4494 76.7597 66.7148 76.5791 67.0006C77.0062 66.2499 76.5171 67.094 76.2729 67.3767C76.5697 66.8074 76.9819 66.3175 77.329 65.7812C77.3274 65.7827 77.3258 65.7859 77.3242 65.7875C77.5826 65.347 77.9076 64.9426 78.1872 64.5209C77.9186 64.8751 77.6234 65.2166 77.3816 65.5912C77.3454 65.6485 77.307 65.705 77.2693 65.7608C77.0604 66.0552 76.8461 66.352 76.6254 66.6394C77.5017 65.3415 77.6438 65.1852 76.5995 66.5413C77.073 65.6257 76.6977 66.3442 76.3914 66.8074C76.481 66.6009 76.3373 66.9071 76.269 66.966C76.5257 66.5075 76.799 66.0536 77.0887 65.6179C78.0042 64.3058 77.0706 65.577 76.5854 66.1777C77.7695 64.0907 76.5783 66.0544 76.0035 67.0548C76.1072 66.838 76.2053 66.619 76.3184 66.4062C76.3153 66.4125 76.3121 66.418 76.309 66.4235C77.3627 64.1535 79.3194 62.503 80.5443 60.3398C80.6668 60.1403 80.7901 59.9291 80.9071 59.7226C80.688 60.1136 80.4815 60.5109 80.2507 60.8957C80.2515 60.8933 80.253 60.8925 80.2538 60.8902C79.2715 62.4009 80.5043 60.6256 80.911 59.9959C80.5969 60.6154 80.246 61.3535 80.8474 60.3382C80.3653 61.2797 81.2753 59.6394 81.4442 59.2648C81.306 59.6268 81.1764 59.9943 81.0005 60.3398C81.3115 59.9362 81.4842 59.4038 81.7245 58.9437C81.4575 59.9048 80.9008 61.0732 81.6365 59.4133ZM76.137 67.3633C76.2006 67.2456 76.2501 67.1199 76.3247 67.0069C76.415 66.8852 76.5061 66.7634 76.5972 66.6425C76.4597 66.893 76.2996 67.1294 76.137 67.3633ZM76.3946 66.6614C76.4001 66.6496 76.4056 66.6378 76.4119 66.626C76.4378 66.5891 76.4637 66.5522 76.4896 66.5153C76.4566 66.5632 76.426 66.6119 76.3946 66.6614ZM76.4927 66.429C76.4974 66.4219 76.5022 66.414 76.5069 66.407C76.5053 66.4101 76.5029 66.414 76.5014 66.4172C76.4982 66.4211 76.4951 66.425 76.4927 66.429ZM76.5414 66.3599C76.678 66.1275 76.8539 65.9202 77.018 65.7066C76.9631 65.7827 76.9073 65.8581 76.8523 65.9343C76.8516 65.9335 76.8508 65.9335 76.85 65.9351C76.7511 66.0795 76.6403 66.217 76.5414 66.3599ZM81.9428 59.3701C81.9428 59.3669 81.9436 59.3638 81.9436 59.3606C81.9475 59.3559 81.9522 59.3512 81.9561 59.3465C81.9514 59.3536 81.9475 59.3622 81.9428 59.3701ZM83.5045 54.9573C83.4904 55.0224 83.4762 55.0876 83.4629 55.1528C83.4652 55.1457 83.466 55.1386 83.4676 55.1316C83.4417 55.2517 83.4181 55.3734 83.393 55.4943C83.3946 55.4857 83.3969 55.4763 83.3985 55.4676C83.2776 55.9835 83.1229 56.49 82.9808 57.0003C82.83 57.4675 82.633 57.9222 82.3966 58.3517C82.3974 58.3501 82.3982 58.3485 82.399 58.3477C82.3943 58.3572 82.3887 58.3666 82.384 58.376C82.3848 58.3744 82.3856 58.3729 82.3864 58.3705C82.3094 58.5103 82.2388 58.6532 82.1689 58.7969C82.1728 58.789 82.176 58.7819 82.1799 58.7741C82.1108 58.9076 82.0346 59.0371 81.9593 59.1675C81.9655 59.1149 81.9702 59.063 81.9805 59.0104C81.9789 59.0175 81.9773 59.0246 81.9757 59.0316C81.9781 59.0199 81.9812 59.0081 81.9836 58.9963C81.9828 58.9994 81.9828 59.0018 81.982 59.0049C82.1281 58.5464 82.1822 58.0619 82.3479 57.6128C82.3479 57.6136 82.3479 57.6136 82.3479 57.6144C82.3652 57.5539 82.3888 57.4911 82.4076 57.4338C82.5332 57.1433 82.6746 56.8464 82.6675 56.5198C82.6675 56.5206 82.6675 56.5214 82.6675 56.5214C82.7005 56.4036 82.7492 56.2905 82.7876 56.1735C82.7868 56.1759 82.7861 56.1767 82.7853 56.179C82.8088 56.1084 82.8175 56.0345 82.8465 55.9662C83.0326 55.5658 83.2069 55.1496 83.4566 54.7735C83.2014 55.4307 83.1088 55.6074 83.4755 54.8646C83.4912 54.8528 83.4967 54.8222 83.5108 54.8026C83.4574 55.0484 83.3231 55.3946 83.5045 54.9573ZM83.4307 54.7194C83.4158 54.739 83.4016 54.7594 83.3859 54.7782C83.4338 54.6966 83.4731 54.6094 83.521 54.5286C83.4943 54.5937 83.4629 54.6565 83.4307 54.7194ZM83.5713 54.6369C83.5705 54.6393 83.5697 54.6416 83.5681 54.644C83.5728 54.6275 83.5783 54.611 83.5838 54.5937C83.5791 54.6079 83.5752 54.622 83.5713 54.6369ZM84.2952 53.0924C84.2952 53.0909 84.2952 53.0901 84.296 53.0885C84.3046 53.0728 84.307 53.0547 84.3117 53.0382C84.3086 53.0571 84.3038 53.0752 84.2952 53.0924Z" fill="#68482C"/>
<path opacity="0.9992" d="M73.6831 58.773C73.6823 58.7233 73.6831 58.7289 73.6831 58.773V58.773Z" fill="#272727"/>
<path opacity="0.9992" d="M76.1367 61.4433C76.1376 61.4424 76.1385 61.4406 76.1395 61.4388C76.1395 61.4378 76.1404 61.4369 76.1404 61.436C76.1385 61.4388 76.1376 61.4415 76.1367 61.4433Z" fill="#272727"/>
</g>
<g opacity="0.9992">
<path d="M37.0109 78.3777L36.7369 79.8829C36.8296 79.8594 37.0361 79.8672 37.1287 79.8813L37.0737 80.1852C36.8814 80.186 36.6505 80.2598 36.5139 80.3642L36.2108 80.3093L36.5767 78.2976L37.0109 78.3777Z" fill="#272727"/>
<path d="M31.5597 78.0444C31.7175 77.545 32.0536 77.0786 32.6323 77.2615C33.1882 77.4374 33.2282 77.9753 33.0594 78.5069C32.9047 78.996 32.542 79.4467 31.9845 79.2701C31.4443 79.0981 31.3972 78.5579 31.5597 78.0444ZM32.6354 78.3765C32.7595 77.9847 32.7807 77.6714 32.5247 77.5898C32.275 77.5112 32.1062 77.7908 31.9845 78.1755C31.8644 78.5548 31.8361 78.8618 32.0873 78.9411C32.337 79.0204 32.5027 78.7974 32.6354 78.3765Z" fill="#272727"/>
<path d="M27.0649 76.1656C27.2887 75.6913 27.6844 75.2744 28.2333 75.5343C28.7602 75.7832 28.7272 76.3219 28.4893 76.8259C28.2702 77.29 27.8501 77.6873 27.3209 77.4376C26.8082 77.195 26.8341 76.6532 27.0649 76.1656ZM28.0865 76.6406C28.2623 76.2692 28.3252 75.9614 28.0833 75.846C27.847 75.7345 27.6413 75.9889 27.4693 76.3533C27.2997 76.7129 27.2306 77.0128 27.4677 77.1251C27.7041 77.2382 27.8972 77.0395 28.0865 76.6406Z" fill="#272727"/>
<path d="M24.3333 73.4282L22.2501 74.3861L21.991 74.2126L24.0765 73.2562L24.3333 73.4282ZM22.3507 72.7365C22.536 72.4593 22.8257 72.3737 23.1036 72.5598C23.3675 72.7357 23.4319 73.0144 23.2269 73.3214C23.0518 73.5829 22.7613 73.6842 22.4755 73.4934C22.2195 73.3222 22.1465 73.0427 22.3507 72.7365ZM22.9537 73.14C23.0612 72.9799 23.0605 72.8527 22.9521 72.7804C22.8445 72.709 22.7315 72.7451 22.6176 72.9155C22.4998 73.0914 22.5234 73.2036 22.6247 73.272C22.726 73.3387 22.8445 73.3034 22.9537 73.14ZM23.0974 74.3194C23.2827 74.0414 23.5724 73.9566 23.8504 74.1427C24.1134 74.3186 24.1802 74.5958 23.9736 74.9044C23.7985 75.1658 23.508 75.2671 23.2222 75.0763C22.967 74.9052 22.8924 74.6256 23.0974 74.3194ZM23.7004 74.7222C23.808 74.5612 23.8072 74.4348 23.6988 74.3626C23.5913 74.2911 23.4782 74.3273 23.3643 74.4976C23.2466 74.6743 23.2701 74.7858 23.3714 74.8541C23.4735 74.9224 23.5897 74.8871 23.7004 74.7222Z" fill="#272727"/>
<path d="M15.4925 67.0371C15.918 66.6594 16.5109 66.5888 16.9521 67.0858C17.3785 67.5656 17.2529 68.1262 16.8155 68.5149C16.3711 68.9098 15.783 68.9365 15.3613 68.4615C14.9632 68.0147 15.0253 67.4525 15.4925 67.0371ZM16.5054 68.1796C16.8037 67.9142 16.9129 67.5828 16.6726 67.3119C16.4111 67.0183 16.0727 67.1329 15.8003 67.3748C15.5113 67.6315 15.3888 67.9519 15.6424 68.2369C15.8874 68.5125 16.2078 68.4434 16.5054 68.1796Z" fill="#272727"/>
<path d="M13.3546 63.8316L14.0369 63.3802L14.2756 63.7406L12.571 64.8689L12.0755 64.1198C11.8297 63.7484 11.902 63.4124 12.165 63.238C12.3935 63.0865 12.6 63.1289 12.7327 63.2192C12.7083 63.114 12.7115 62.9287 13.0169 62.7269L13.101 62.6711C13.2156 62.595 13.3451 62.5078 13.4095 62.4316L13.6404 62.781C13.5862 62.8604 13.4622 62.9499 13.2808 63.07L13.2556 63.0865C13.0695 63.2098 13.0122 63.3158 13.1936 63.5898L13.3546 63.8316ZM13.0609 64.0256L12.8568 63.7162C12.7233 63.5144 12.5953 63.4869 12.4524 63.5819C12.3134 63.6738 12.2961 63.8159 12.4155 63.9957L12.6259 64.3138L13.0609 64.0256Z" fill="#272727"/>
<path d="M11.0291 57.9614L11.1681 58.2543C11.1187 58.2967 11.0598 58.3367 11.0001 58.3713C11.187 58.4082 11.3472 58.5534 11.4689 58.8102C11.7233 59.3465 11.4594 59.838 10.9334 60.0877C10.3782 60.3508 9.80661 60.2259 9.53022 59.6433C9.30487 59.1675 9.4407 58.7608 9.73436 58.5668L9.92361 58.9665C9.81761 59.063 9.71789 59.2303 9.84587 59.5004C10.0257 59.8796 10.3939 59.838 10.7198 59.6834C11.0378 59.5326 11.2922 59.2601 11.1187 58.8942C10.9569 58.5527 10.6899 58.6021 10.5243 58.6807L10.5078 58.6885L10.7002 59.0937L10.3727 59.2491L9.99505 58.4522L11.0291 57.9614Z" fill="#272727"/>
<path d="M9.24584 54.5624L9.74445 54.5765L9.87164 54.9919L7.71314 54.9267L7.5506 54.3959L9.29375 53.1042L9.42958 53.5487L9.02755 53.8478L9.24584 54.5624ZM8.70797 54.0449C8.33815 54.3103 8.10104 54.4791 7.94007 54.5804L7.94086 54.5836C8.14815 54.5726 8.48499 54.5765 8.8713 54.5796L8.70797 54.0449Z" fill="#272727"/>
<path d="M8.59334 50.0129L6.57304 50.3254L6.48902 49.7836C6.90361 49.4609 7.64954 48.8681 7.85526 48.7417L7.85448 48.7362C7.64719 48.7919 7.2962 48.8453 6.96485 48.8963L6.36575 48.989L6.3045 48.5933L8.32481 48.2808L8.40411 48.7943C8.04292 49.0722 7.18313 49.7342 6.96485 49.8708L6.96563 49.8763C7.13995 49.8346 7.55454 49.7656 7.91651 49.709L8.53133 49.614L8.59334 50.0129Z" fill="#272727"/>
<path d="M6.00647 44.4864L8.05033 44.4338L8.0621 44.8759L6.01825 44.9285L6.00647 44.4864Z" fill="#272727"/>
<path d="M7.67628 39.2557C8.04767 39.3751 8.2958 39.6883 8.24633 40.1979C8.18273 40.8434 7.69668 41.1033 7.118 41.0459C6.56051 40.991 6.09176 40.6274 6.15614 39.971C6.20953 39.4292 6.55346 39.1976 6.89816 39.1819L6.85497 39.6216C6.694 39.6483 6.52675 39.7425 6.50006 40.0189C6.46472 40.3817 6.77723 40.5536 7.14706 40.5905C7.49097 40.6243 7.8655 40.5387 7.90398 40.1453C7.93224 39.8579 7.74851 39.7488 7.63387 39.6985L7.67628 39.2557Z" fill="#272727"/>
<path d="M9.51237 32.077L9.9034 32.3864L9.75735 32.7955L8.06525 31.4536L8.25213 30.9307L10.4216 30.9369L10.2654 31.3743L9.76442 31.3735L9.51237 32.077ZM9.38988 31.3413C8.93447 31.3327 8.64393 31.3272 8.45391 31.3115L8.45313 31.3146C8.62587 31.43 8.89362 31.6342 9.20142 31.8674L9.38988 31.3413Z" fill="#272727"/>
<path d="M11.7091 28.0388L9.90234 27.0816L10.1591 26.5971C10.6844 26.5862 11.6368 26.5571 11.8779 26.5783L11.8802 26.5736C11.6808 26.4943 11.3675 26.3278 11.0707 26.1708L10.5352 25.8873L10.7229 25.5332L12.5296 26.4904L12.2862 26.9497C11.83 26.9568 10.7449 26.9733 10.4889 26.9521L10.4865 26.9568C10.6514 27.0274 11.0252 27.2198 11.3487 27.391L11.8983 27.6823L11.7091 28.0388Z" fill="#272727"/>
<path d="M12.693 22.3931L13.1728 21.739C13.5253 21.2585 14.0718 21.1768 14.5586 21.5341C15.0392 21.8867 15.1805 22.4583 14.8099 22.9632L14.3411 23.6015L12.693 22.3931ZM14.3152 23.0346L14.5115 22.7676C14.7431 22.4512 14.6104 22.1395 14.2893 21.9039C14.02 21.7061 13.6768 21.6558 13.4397 21.9785L13.2419 22.2478L14.3152 23.0346Z" fill="#272727"/>
<path d="M20.1481 17.139L18.8447 15.5639L19.2671 15.2144C19.7563 15.4052 20.6483 15.7421 20.8626 15.8544L20.8665 15.8512C20.7126 15.7013 20.4865 15.428 20.2729 15.1689L19.8866 14.7017L20.1952 14.4465L21.4986 16.0216L21.0982 16.353C20.6742 16.1849 19.6652 15.7861 19.4359 15.6683L19.432 15.6714C19.5576 15.7994 19.8293 16.1206 20.0625 16.4024L20.459 16.8814L20.1481 17.139Z" fill="#272727"/>
<path d="M24.3413 13.4562L24.4513 13.9423L24.0807 14.1684L23.6072 12.0617L24.0807 11.772L25.7641 13.139L25.3676 13.3808L24.9781 13.0652L24.3413 13.4562ZM24.7088 12.8076C24.3602 12.5148 24.1372 12.3279 23.9998 12.1968L23.9974 12.1983C24.0595 12.397 24.1396 12.7236 24.2322 13.099L24.7088 12.8076Z" fill="#272727"/>
<path d="M28.0473 10.0999L27.4796 10.3527L27.332 10.0222L28.8686 9.33667L29.0163 9.66724L28.4509 9.91929L29.1356 11.4559L28.7312 11.6357L28.0473 10.0999Z" fill="#272727"/>
<path d="M32.5467 8.02853L32.8827 9.19925C32.9911 9.57615 33.2172 9.63268 33.4292 9.57143C33.6726 9.50155 33.7873 9.32567 33.6844 8.96919L33.3483 7.79847L33.7739 7.67676L34.1037 8.82628C34.2969 9.49841 33.9522 9.78265 33.5187 9.90671C33.0751 10.0339 32.6417 9.96482 32.4532 9.30839L32.1211 8.15023L32.5467 8.02853Z" fill="#272727"/>
<path d="M37.9451 8.08195L38.0581 8.89228L37.6302 8.95195L37.3483 6.92693L38.238 6.80288C38.68 6.74163 38.9509 6.95127 38.9949 7.26456C39.0326 7.53624 38.9054 7.70428 38.7672 7.78437C38.8724 7.80714 39.0389 7.89115 39.0891 8.25313L39.1032 8.35285C39.1221 8.48869 39.1449 8.64416 39.1857 8.73524L38.7703 8.79256C38.7224 8.70933 38.6949 8.55857 38.6651 8.34343L38.6612 8.31359C38.6306 8.09217 38.5599 7.99479 38.2332 8.04034L37.9451 8.08195ZM37.8972 7.73333L38.2647 7.68229C38.5041 7.64931 38.5842 7.54488 38.5607 7.37528C38.5379 7.21039 38.417 7.13344 38.2034 7.16328L37.8257 7.21588L37.8972 7.73333Z" fill="#272727"/>
<path d="M42.8917 8.03851L42.7291 8.50963L42.2949 8.50649L43.0031 6.46655L43.5583 6.47047L44.2681 8.51984L43.8033 8.51669L43.6384 8.04322L42.8917 8.03851ZM43.5457 7.68125C43.4036 7.2486 43.3133 6.97222 43.2646 6.78848H43.2615C43.2097 6.98949 43.1052 7.30985 42.9867 7.67732L43.5457 7.68125Z" fill="#272727"/>
<path d="M47.7108 6.72925L48.1489 6.78892L47.9212 8.4551L48.9302 8.5933L48.8313 8.94506L47.4344 8.75427L47.7108 6.72925Z" fill="#272727"/>
</g>
<path d="M23.1725 49.7955H24.0635C23.9202 49.9696 23.8485 50.1488 23.8485 50.3332V55.0954C23.8485 55.3463 23.8229 55.5537 23.7717 55.7176C23.7256 55.8865 23.659 56.0069 23.572 56.0786C23.4849 56.1503 23.403 56.1989 23.3262 56.2245C23.2494 56.2501 23.1597 56.2629 23.0573 56.2629V56.1784C23.2826 56.1784 23.3953 55.8174 23.3953 55.0954V50.3332C23.3953 50.2512 23.3774 50.1667 23.3415 50.0797C23.3057 49.9875 23.2673 49.9158 23.2263 49.8646L23.1725 49.7955ZM31.1461 52.7834H28.5038C28.4987 52.8141 28.4961 52.8577 28.4961 52.914C28.4961 53.2571 28.5422 53.5566 28.6344 53.8127C28.7265 54.0636 28.8443 54.253 28.9877 54.3811C29.1362 54.5091 29.3001 54.5987 29.4793 54.6499C29.6636 54.7011 29.8454 54.7088 30.0246 54.6729C30.209 54.6371 30.3831 54.5731 30.5469 54.4809C30.7108 54.3836 30.8465 54.2633 30.954 54.1199L31.0232 54.166C31.0129 54.1865 30.995 54.2121 30.9694 54.2428C30.9489 54.2684 30.8977 54.3222 30.8158 54.4041C30.7338 54.4809 30.6417 54.55 30.5393 54.6115C30.442 54.6678 30.3088 54.719 30.1398 54.7651C29.9709 54.8163 29.7891 54.8419 29.5945 54.8419C29.1183 54.8419 28.7291 54.6781 28.427 54.3503C28.13 54.0226 27.9815 53.6002 27.9815 53.083C27.9815 52.5914 28.1377 52.1817 28.45 51.854C28.7624 51.5263 29.1772 51.3624 29.6943 51.3624C29.8019 51.3624 29.9145 51.3752 30.0323 51.4008C30.1501 51.4264 30.2755 51.4725 30.4087 51.5391C30.5469 51.6005 30.6698 51.6799 30.7774 51.7772C30.8849 51.8745 30.972 52.0025 31.0385 52.1612C31.1102 52.3149 31.1461 52.489 31.1461 52.6836V52.7834ZM29.5868 51.4546C29.3205 51.4546 29.085 51.5724 28.8802 51.8079C28.6753 52.0435 28.5524 52.3354 28.5115 52.6836H30.6698C30.6698 52.32 30.57 52.0255 30.3703 51.8002C30.1706 51.5698 29.9094 51.4546 29.5868 51.4546ZM39.1097 51.4546H39.6935C39.5962 51.5365 39.4938 51.7106 39.3862 51.9769L38.3032 54.7958H38.1957L37.274 52.4147L36.3522 54.7958H36.2447L35.154 51.9846C35.1079 51.8617 35.0567 51.7567 35.0004 51.6697C34.9441 51.5826 34.9005 51.5237 34.8698 51.493L34.8237 51.4546H35.6456C35.6353 51.47 35.6251 51.493 35.6149 51.5237C35.6046 51.5544 35.5944 51.6185 35.5841 51.7157C35.5739 51.813 35.5893 51.9027 35.6302 51.9846L36.4828 54.1737L37.2125 52.2688L37.105 51.9846C37.0589 51.8617 37.0077 51.7567 36.9514 51.6697C36.9002 51.5826 36.8566 51.5237 36.8208 51.493L36.7747 51.4546H37.6042C37.594 51.47 37.5838 51.493 37.5735 51.5237C37.5633 51.5544 37.553 51.6185 37.5428 51.7157C37.5326 51.813 37.5479 51.9027 37.5889 51.9846L38.4338 54.1814L39.2787 51.9846C39.3094 51.8873 39.312 51.8002 39.2864 51.7234C39.2608 51.6415 39.2249 51.5749 39.1789 51.5237L39.1097 51.4546ZM46.464 52.7834H43.8217C43.8166 52.8141 43.8141 52.8577 43.8141 52.914C43.8141 53.2571 43.8602 53.5566 43.9523 53.8127C44.0445 54.0636 44.1623 54.253 44.3057 54.3811C44.4542 54.5091 44.618 54.5987 44.7972 54.6499C44.9816 54.7011 45.1634 54.7088 45.3426 54.6729C45.5269 54.6371 45.701 54.5731 45.8649 54.4809C46.0288 54.3836 46.1645 54.2633 46.272 54.1199L46.3411 54.166C46.3309 54.1865 46.313 54.2121 46.2874 54.2428C46.2669 54.2684 46.2157 54.3222 46.1337 54.4041C46.0518 54.4809 45.9596 54.55 45.8572 54.6115C45.7599 54.6678 45.6268 54.719 45.4578 54.7651C45.2888 54.8163 45.107 54.8419 44.9125 54.8419C44.4362 54.8419 44.0471 54.6781 43.7449 54.3503C43.4479 54.0226 43.2994 53.6002 43.2994 53.083C43.2994 52.5914 43.4556 52.1817 43.768 51.854C44.0803 51.5263 44.4951 51.3624 45.0123 51.3624C45.1198 51.3624 45.2325 51.3752 45.3503 51.4008C45.468 51.4264 45.5935 51.4725 45.7266 51.5391C45.8649 51.6005 45.9878 51.6799 46.0953 51.7772C46.2029 51.8745 46.2899 52.0025 46.3565 52.1612C46.4282 52.3149 46.464 52.489 46.464 52.6836V52.7834ZM44.9048 51.4546C44.6385 51.4546 44.4029 51.5724 44.1981 51.8079C43.9933 52.0435 43.8704 52.3354 43.8294 52.6836H45.9878C45.9878 52.32 45.8879 52.0255 45.6882 51.8002C45.4885 51.5698 45.2274 51.4546 44.9048 51.4546ZM50.6165 50.579C50.6165 50.497 50.5985 50.4125 50.5627 50.3255C50.5268 50.2333 50.491 50.1616 50.4552 50.1104L50.4014 50.0413L51.0696 49.7187V54.2198C51.0696 54.3017 51.0876 54.3862 51.1234 54.4732C51.1593 54.5603 51.1951 54.6269 51.2309 54.6729L51.2847 54.7498H50.4014C50.5448 54.5757 50.6165 54.399 50.6165 54.2198V50.579ZM55.4963 52.3072C55.4963 52.2253 55.4784 52.1408 55.4425 52.0537C55.4067 51.9667 55.3709 51.8975 55.335 51.8463L55.2812 51.7772L55.9495 51.4546V52.1075C55.9546 52.087 55.9597 52.0614 55.9649 52.0307C55.9751 51.9948 56.0007 51.9359 56.0417 51.854C56.0878 51.767 56.139 51.6901 56.1953 51.6236C56.2516 51.557 56.3335 51.4981 56.4411 51.4469C56.5537 51.3906 56.6792 51.3624 56.8175 51.3624C56.9608 51.3624 57.0863 51.3803 57.1938 51.4162C57.3014 51.452 57.3807 51.4956 57.4319 51.5468C57.4883 51.5929 57.5318 51.6415 57.5625 51.6927C57.5984 51.7439 57.6214 51.7874 57.6316 51.8233L57.6393 51.877H57.1631C57.1529 51.8514 57.1375 51.8207 57.117 51.7849C57.1017 51.749 57.0556 51.7029 56.9788 51.6466C56.9071 51.5903 56.82 51.5621 56.7176 51.5621C56.4872 51.5672 56.3003 51.6748 56.1569 51.8847C56.0186 52.0896 55.9495 52.3277 55.9495 52.5991V54.2198C55.9495 54.3017 55.9674 54.3862 56.0033 54.4732C56.0391 54.5603 56.075 54.6269 56.1108 54.6729L56.1646 54.7498H55.2812C55.4246 54.5757 55.4963 54.399 55.4963 54.2198V52.3072ZM63.533 51.4546H64.1091C64.0118 51.5365 63.9094 51.7132 63.8019 51.9846L62.3962 55.6638C62.3245 55.8635 62.2554 56.0222 62.1888 56.14C62.1223 56.2578 62.0506 56.3397 61.9738 56.3858C61.897 56.4319 61.8381 56.4601 61.7971 56.4703C61.7561 56.4805 61.687 56.4882 61.5897 56.4934V56.0709C61.7997 56.0709 61.9738 55.9787 62.112 55.7944C62.2554 55.6152 62.4372 55.249 62.6574 54.696L61.5667 51.9846C61.5206 51.8617 61.4694 51.7567 61.4131 51.6697C61.3618 51.5826 61.3209 51.5237 61.2902 51.493L61.2441 51.4546H62.0659C62.0557 51.47 62.0455 51.493 62.0352 51.5237C62.025 51.5544 62.0147 51.6185 62.0045 51.7157C61.9943 51.813 62.0096 51.9027 62.0506 51.9846L62.8801 54.1122L63.6943 51.9846C63.725 51.8873 63.7276 51.8002 63.702 51.7234C63.6815 51.6415 63.6482 51.5749 63.6021 51.5237L63.533 51.4546Z" fill="#272727"/>
</svg>
