<svg width="17" height="16" viewBox="0 0 17 16" fill="none" xmlns="http://www.w3.org/2000/svg">
<path fill-rule="evenodd" clip-rule="evenodd" d="M8.30945 1.32935C4.40939 1.32935 1.38474 4.07207 1.38474 7.77742C1.38474 9.7154 2.21239 11.3896 3.55892 12.5457C3.67087 12.643 3.73931 12.7775 3.74461 12.9242L3.78281 14.1073C3.78555 14.1943 3.81054 14.2793 3.85557 14.3549C3.90059 14.4304 3.96428 14.4941 4.04101 14.5405C4.11775 14.5868 4.20518 14.6144 4.2956 14.6206C4.38602 14.6269 4.47666 14.6117 4.55954 14.5764L5.93419 13.9948C6.05144 13.9459 6.18142 13.9362 6.30345 13.9678C6.9348 14.1343 7.607 14.2245 8.30733 14.2245C12.2074 14.2245 15.232 11.4823 15.232 7.77691C15.232 4.07207 12.2079 1.32935 8.30945 1.32935ZM11.9453 6.36658L10.2115 9.00642C10.1462 9.10579 10.0602 9.1911 9.95894 9.25699C9.85765 9.32288 9.74323 9.36792 9.62291 9.38926C9.50259 9.4106 9.37897 9.40778 9.25984 9.38099C9.14071 9.3542 9.02865 9.30401 8.93072 9.23358L7.5513 8.24141C7.48986 8.19735 7.41523 8.17354 7.33855 8.17354C7.26186 8.17354 7.18723 8.19735 7.1258 8.24141L5.26463 9.59775C5.01793 9.77856 4.69164 9.49283 4.85717 9.24122L6.591 6.60138C6.65625 6.50201 6.74223 6.4167 6.84353 6.35081C6.94482 6.28492 7.05924 6.23988 7.17956 6.21854C7.29988 6.1972 7.4235 6.20002 7.54263 6.22681C7.66176 6.2536 7.77382 6.3038 7.87175 6.37422L9.25117 7.36639C9.31261 7.41045 9.38724 7.43426 9.46392 7.43426C9.54061 7.43426 9.61524 7.41045 9.67667 7.36639L11.5378 6.01005C11.7872 5.8267 12.1135 6.11243 11.9453 6.36658Z" fill="#222222"/>
</svg>
