<svg width="29" height="24" viewBox="0 0 29 24" fill="none" xmlns="http://www.w3.org/2000/svg">
<path d="M29 24H17.8609C16.7726 20.4082 16.2285 16.6857 16.2285 12.8327C16.2285 8.91428 17.2207 5.81224 19.2053 3.52653C21.2539 1.17551 24.2627 0 28.2318 0V5.48571C25.0309 5.48571 23.4305 7.47755 23.4305 11.4612V13.3224H29V24ZM12.7715 24H1.63245C0.54415 20.4082 0 16.6857 0 12.8327C0 8.91428 0.992273 5.81224 2.97682 3.52653C5.02539 1.17551 8.03422 0 12.0033 0V5.48571C8.80243 5.48571 7.20199 7.47755 7.20199 11.4612V13.3224H12.7715V24Z" fill="#6C4C32"/>
</svg>
