<svg width="119" height="21" viewBox="0 0 119 21" fill="none" xmlns="http://www.w3.org/2000/svg">
<path d="M4.79265 9.59338C4.79265 9.59338 0.171332 12.3725 0.0438477 12.653C-0.083637 12.9335 0.0969663 12.9611 0.203203 12.9398C0.309441 12.9186 0.904369 12.653 0.904369 12.653C1.36331 12.3725 5.55756 10.4964 7.59731 9.59338C8.84029 8.89221 8.99965 9.59338 8.99965 9.81647C8.99965 9.99495 8.85091 10.422 8.77655 10.6133C8.57334 12.0326 10.6994 11.5375 11.645 11.0913C12.4099 10.6324 15.087 9.71024 16.33 9.30654C17.3754 9.10256 17.4668 9.5615 17.3818 9.81647C17.3053 10.0714 17.0949 10.2414 16.9993 10.2945C16.6424 10.8045 16.9993 11.0382 17.2224 11.0913C17.8853 11.0658 19.3259 11.3144 19.9633 11.4419C20.6326 11.4419 25.8914 13.1629 25.9551 13.2267C26.2866 13.2267 26.2632 13.0355 26.2101 12.9398L24.8396 12.0793L18.1148 7.93608C17.2224 7.40064 16.5531 7.62799 16.33 7.80859C15.4695 8.29728 13.7038 9.30654 13.5254 9.43402C13.0664 9.79098 12.5905 9.58276 12.4099 9.43402L10.0195 8.03169C9.25461 7.54725 8.86018 7.50694 8.29848 7.68111C7.73678 7.85527 4.79265 9.59338 4.79265 9.59338Z" fill="#06382A"/>
<path d="M2.46263 5.81182V1.17509C2.46263 1.07846 2.54097 1.00012 2.6376 1.00012H7.18684" stroke="#222222" stroke-width="0.612398" stroke-linecap="round"/>
<path d="M23.8079 15.8726V20.5094C23.8079 20.606 23.7295 20.6843 23.6329 20.6843H19.0837" stroke="#222222" stroke-width="0.612398" stroke-linecap="round"/>
<path d="M23.8079 5.81182V1.17509C23.8079 1.07846 23.7295 1.00012 23.6329 1.00012H19.0837" stroke="#222222" stroke-width="0.612398" stroke-linecap="round"/>
<path d="M2.46263 15.8726V20.5094C2.46263 20.606 2.54097 20.6843 2.6376 20.6843H7.18684" stroke="#222222" stroke-width="0.612398" stroke-linecap="round"/>
<circle cx="20.8335" cy="3.88745" r="0.962339" fill="#06382A"/>
<path d="M35.9814 6.95014H35.8163C35.7763 6.83508 35.7112 6.70501 35.6212 6.55993C35.5361 6.41485 35.4211 6.27978 35.276 6.15471C35.1359 6.02464 34.9633 5.91708 34.7582 5.83204C34.5581 5.74699 34.3205 5.70447 34.0453 5.70447C33.8002 5.70447 33.5826 5.74199 33.3925 5.81703C33.2024 5.89207 33.0423 5.99713 32.9122 6.1322C32.7872 6.26727 32.6921 6.42736 32.6271 6.61246C32.562 6.79756 32.5295 7.00267 32.5295 7.22779C32.5295 7.58798 32.6296 7.93317 32.8297 8.26334C33.0348 8.58852 33.2899 8.91119 33.5951 9.23136C33.9003 9.55154 34.2304 9.87171 34.5856 10.1919C34.9408 10.5121 35.271 10.8447 35.5762 11.1899C35.8813 11.5351 36.134 11.8978 36.3341 12.278C36.5392 12.6532 36.6417 13.0584 36.6417 13.4937C36.6417 13.8188 36.5842 14.1465 36.4691 14.4767C36.3591 14.8019 36.1865 15.0945 35.9514 15.3547C35.7162 15.6148 35.4136 15.8274 35.0434 15.9925C34.6732 16.1526 34.2329 16.2326 33.7227 16.2326C33.4375 16.2326 33.1649 16.2051 32.9047 16.1501C32.6496 16.1001 32.412 16.0375 32.1918 15.9625C31.9767 15.8824 31.7816 15.7974 31.6065 15.7073C31.4364 15.6173 31.2964 15.5348 31.1863 15.4597L31.3589 13.8013H31.5465C31.6015 14.0364 31.6916 14.2616 31.8166 14.4767C31.9417 14.6868 32.0943 14.8744 32.2744 15.0395C32.4595 15.1996 32.6696 15.3296 32.9047 15.4297C33.1399 15.5247 33.3975 15.5723 33.6776 15.5723C33.9328 15.5723 34.1604 15.5348 34.3605 15.4597C34.5656 15.3797 34.7407 15.2721 34.8858 15.137C35.0309 14.997 35.1409 14.8319 35.216 14.6418C35.296 14.4517 35.336 14.2441 35.336 14.0189C35.336 13.7038 35.2785 13.4136 35.1634 13.1485C35.0484 12.8783 34.8958 12.6232 34.7057 12.3831C34.5206 12.1429 34.308 11.9103 34.0679 11.6852C33.8327 11.4601 33.5901 11.2349 33.34 11.0098C33.0898 10.7797 32.8447 10.5446 32.6046 10.3044C32.3694 10.0643 32.1568 9.80917 31.9667 9.53903C31.7816 9.26388 31.6315 8.97122 31.5165 8.66106C31.4014 8.34589 31.3439 8.0007 31.3439 7.6255C31.3439 7.23029 31.4189 6.8751 31.569 6.55993C31.7241 6.23976 31.9267 5.96711 32.1768 5.74199C32.432 5.51687 32.7196 5.34427 33.0398 5.22421C33.36 5.10415 33.6902 5.04411 34.0303 5.04411C34.2805 5.04411 34.5106 5.06412 34.7207 5.10415C34.9308 5.14417 35.1184 5.19169 35.2835 5.24672C35.4536 5.30175 35.6012 5.35678 35.7262 5.41181C35.8513 5.46684 35.9539 5.51186 36.0339 5.54688L35.9814 6.95014ZM43.3954 5.05912C44.2308 5.05912 45.0012 5.1967 45.7066 5.47184C46.417 5.74199 47.0298 6.12469 47.5451 6.61996C48.0604 7.11022 48.4631 7.70054 48.7532 8.39091C49.0434 9.08128 49.1885 9.84419 49.1885 10.6796C49.1885 11.1549 49.1335 11.6226 49.0234 12.0829C48.9133 12.5431 48.7507 12.9784 48.5356 13.3886C48.3255 13.7988 48.0654 14.179 47.7552 14.5292C47.445 14.8744 47.0899 15.1746 46.6896 15.4297C46.2944 15.6798 45.8567 15.8749 45.3764 16.015C44.8962 16.1601 44.3784 16.2326 43.8231 16.2326C42.9877 16.2326 42.2147 16.1001 41.5044 15.8349C40.799 15.5648 40.1886 15.1846 39.6734 14.6943C39.1581 14.204 38.7554 13.6162 38.4652 12.9309C38.1751 12.2405 38.03 11.4751 38.03 10.6346C38.03 10.1594 38.085 9.69161 38.1951 9.23136C38.3051 8.77112 38.4652 8.33338 38.6753 7.91816C38.8904 7.50293 39.1506 7.12273 39.4558 6.77754C39.7659 6.42736 40.1186 6.12469 40.5138 5.86956C40.914 5.61442 41.3543 5.41681 41.8345 5.27674C42.3198 5.13166 42.8401 5.05912 43.3954 5.05912ZM43.8231 15.5573C44.3784 15.5573 44.8862 15.4572 45.3464 15.2571C45.8067 15.057 46.2019 14.7668 46.5321 14.3866C46.8672 14.0064 47.1274 13.5437 47.3125 12.9984C47.4976 12.4481 47.5901 11.8253 47.5901 11.1299C47.5901 10.3595 47.5001 9.64659 47.32 8.99123C47.1449 8.33088 46.8822 7.76057 46.5321 7.28031C46.1819 6.79505 45.7441 6.41735 45.2188 6.14721C44.6986 5.87206 44.0907 5.73448 43.3954 5.73448C42.8401 5.73448 42.3323 5.83454 41.8721 6.03465C41.4118 6.22975 41.0141 6.5149 40.6789 6.89011C40.3487 7.26531 40.0911 7.72555 39.906 8.27085C39.7209 8.81614 39.6283 9.43647 39.6283 10.1318C39.6283 10.8973 39.7159 11.6126 39.891 12.278C40.0661 12.9384 40.3287 13.5112 40.6789 13.9964C41.0291 14.4817 41.4668 14.8644 41.9921 15.1445C42.5174 15.4197 43.1277 15.5573 43.8231 15.5573ZM58.5835 8.1808C58.5835 7.75557 58.5785 7.38537 58.5685 7.0702C58.5585 6.75003 58.5435 6.47488 58.5235 6.24476C58.5035 6.00963 58.481 5.81453 58.456 5.65944C58.4309 5.50436 58.4034 5.37429 58.3734 5.26923V5.23922H59.7091V5.26923C59.6791 5.37429 59.6491 5.50436 59.6191 5.65944C59.5941 5.81453 59.5716 6.00963 59.5516 6.24476C59.5365 6.47488 59.5215 6.75003 59.5065 7.0702C59.4965 7.38537 59.4915 7.75557 59.4915 8.1808V12.233C59.4915 12.9484 59.389 13.5587 59.1839 14.064C58.9787 14.5692 58.6936 14.9845 58.3284 15.3096C57.9632 15.6298 57.5255 15.8624 57.0152 16.0075C56.5049 16.1576 55.9471 16.2326 55.3418 16.2326C54.7365 16.2326 54.1712 16.1626 53.6459 16.0225C53.1256 15.8824 52.6704 15.6573 52.2801 15.3471C51.8949 15.032 51.5923 14.6268 51.3722 14.1315C51.152 13.6312 51.042 13.0234 51.042 12.308V8.1808C51.042 7.75557 51.037 7.38537 51.027 7.0702C51.017 6.75003 51.002 6.47488 50.9819 6.24476C50.9619 6.00963 50.9369 5.81453 50.9069 5.65944C50.8819 5.50436 50.8544 5.37429 50.8244 5.26923V5.23922H52.6253V5.26923C52.5953 5.37429 52.5653 5.50436 52.5353 5.65944C52.5103 5.81453 52.4878 6.00963 52.4677 6.24476C52.4477 6.47488 52.4327 6.75003 52.4227 7.0702C52.4127 7.38537 52.4077 7.75557 52.4077 8.1808V12.3906C52.4077 12.9859 52.4953 13.4786 52.6704 13.8689C52.8505 14.2541 53.0856 14.5617 53.3757 14.7919C53.6659 15.017 53.9961 15.1746 54.3663 15.2646C54.7365 15.3547 55.1142 15.3997 55.4994 15.3997C55.8846 15.3997 56.2623 15.3547 56.6325 15.2646C57.0027 15.1746 57.3304 15.017 57.6155 14.7919C57.9057 14.5617 58.1383 14.2541 58.3134 13.8689C58.4935 13.4786 58.5835 12.9859 58.5835 12.3906V8.1808ZM62.2155 5.23922L69.9446 13.4636V8.1808C69.9446 7.75557 69.9396 7.38537 69.9296 7.0702C69.9196 6.75003 69.9046 6.47488 69.8846 6.24476C69.8646 6.00963 69.8396 5.81453 69.8096 5.65944C69.7845 5.50436 69.757 5.37429 69.727 5.26923V5.23922H71.0627V5.26923C71.0327 5.37429 71.0052 5.50436 70.9802 5.65944C70.9552 5.81453 70.9327 6.00963 70.9127 6.24476C70.8926 6.47488 70.8776 6.75003 70.8676 7.0702C70.8576 7.38537 70.8526 7.75557 70.8526 8.1808V16.1501H70.59L62.8608 7.93317V13.0659C62.8608 13.4912 62.8658 13.8639 62.8758 14.184C62.8858 14.4992 62.9009 14.7718 62.9209 15.002C62.9409 15.2321 62.9634 15.4247 62.9884 15.5798C63.0134 15.7349 63.0409 15.8649 63.0709 15.97V16H61.7352V15.97C61.7652 15.8649 61.7928 15.7349 61.8178 15.5798C61.8478 15.4247 61.8728 15.2321 61.8928 15.002C61.9128 14.7718 61.9278 14.4992 61.9378 14.184C61.9478 13.8639 61.9528 13.4912 61.9528 13.0659V8.1808C61.9528 7.75557 61.9478 7.38537 61.9378 7.0702C61.9278 6.75003 61.9128 6.47488 61.8928 6.24476C61.8728 6.00963 61.8478 5.81453 61.8178 5.65944C61.7928 5.50436 61.7652 5.37429 61.7352 5.26923V5.23922H62.2155ZM74.7997 5.88456C74.7897 6.44487 74.7797 6.98766 74.7697 7.51294C74.7647 7.73806 74.7597 7.96818 74.7547 8.20331C74.7547 8.43844 74.7522 8.67106 74.7472 8.90119C74.7472 9.12631 74.7447 9.34392 74.7397 9.55404C74.7397 9.75915 74.7397 9.94174 74.7397 10.1018C74.7397 10.437 74.7422 10.8422 74.7472 11.3175C74.7522 11.7927 74.7572 12.2805 74.7622 12.7808C74.7722 13.281 74.7847 13.7613 74.7997 14.2215C74.8148 14.6818 74.8323 15.0645 74.8523 15.3697C74.9223 15.3797 75.0149 15.3922 75.1299 15.4072C75.25 15.4172 75.3751 15.4272 75.5051 15.4372C75.6352 15.4422 75.7628 15.4472 75.8878 15.4522C76.0129 15.4572 76.118 15.4597 76.203 15.4597C76.5532 15.4597 76.9109 15.4372 77.2761 15.3922C77.6463 15.3421 78.0015 15.2521 78.3416 15.122C78.6868 14.992 79.0095 14.8144 79.3097 14.5892C79.6148 14.3591 79.88 14.064 80.1051 13.7038C80.3352 13.3436 80.5153 12.9108 80.6454 12.4056C80.7755 11.8953 80.8405 11.295 80.8405 10.6046C80.8405 9.83919 80.7479 9.15882 80.5628 8.5635C80.3777 7.96318 80.1051 7.45791 79.7449 7.04769C79.3897 6.63747 78.947 6.3273 78.4167 6.11719C77.8914 5.90207 77.2861 5.79452 76.6007 5.79452C76.4656 5.79452 76.3131 5.79952 76.143 5.80952C75.9729 5.81453 75.8028 5.82203 75.6327 5.83204C75.4676 5.83704 75.31 5.84704 75.1599 5.86205C75.0149 5.87206 74.8948 5.87956 74.7997 5.88456ZM73.1564 5.2092C73.2714 5.2142 73.379 5.21921 73.479 5.22421C73.5641 5.22921 73.6516 5.23422 73.7417 5.23922C73.8317 5.23922 73.9043 5.23922 73.9593 5.23922C74.0543 5.23922 74.2119 5.23422 74.432 5.22421C74.6572 5.2142 74.9123 5.2042 75.1975 5.19419C75.4826 5.18419 75.7778 5.17418 76.0829 5.16418C76.3931 5.15417 76.6833 5.14917 76.9534 5.14917C77.6788 5.14917 78.3692 5.23922 79.0245 5.41931C79.6799 5.59941 80.2552 5.89457 80.7504 6.30479C81.2457 6.71501 81.6384 7.2528 81.9286 7.91816C82.2187 8.58352 82.3638 9.40145 82.3638 10.372C82.3638 11.0673 82.2863 11.6927 82.1312 12.248C81.9811 12.8033 81.7685 13.2935 81.4933 13.7188C81.2182 14.144 80.888 14.5092 80.5028 14.8144C80.1226 15.1145 79.6999 15.3622 79.2346 15.5573C78.7744 15.7524 78.2816 15.8949 77.7563 15.985C77.231 16.075 76.6883 16.1201 76.128 16.1201C75.9278 16.1201 75.6852 16.1126 75.4001 16.0976C75.1199 16.0875 74.8373 16.075 74.5521 16.06C74.267 16.045 73.9968 16.03 73.7417 16.015C73.4915 16.005 73.2964 16 73.1564 16V15.97C73.1864 15.8649 73.2139 15.7349 73.2389 15.5798C73.2689 15.4247 73.2939 15.2321 73.3139 15.002C73.334 14.7718 73.349 14.4992 73.359 14.184C73.369 13.8639 73.374 13.4912 73.374 13.0659V8.1808C73.374 7.75557 73.369 7.38287 73.359 7.0627C73.349 6.73752 73.334 6.45987 73.3139 6.22975C73.2939 5.99462 73.2689 5.79702 73.2389 5.63693C73.2139 5.47685 73.1864 5.34427 73.1564 5.23922V5.2092ZM85.7106 11.2349C86.2009 11.325 86.6486 11.335 87.0538 11.265C87.464 11.1899 87.8142 11.0348 88.1044 10.7997C88.3996 10.5596 88.6272 10.2369 88.7873 9.83169C88.9523 9.42647 89.0349 8.9312 89.0349 8.34589C89.0349 7.94067 88.9924 7.57297 88.9073 7.24279C88.8223 6.90761 88.6947 6.62496 88.5246 6.39484C88.3595 6.15971 88.1494 5.97962 87.8943 5.85455C87.6391 5.72448 87.3415 5.65944 87.0013 5.65944C86.7862 5.65944 86.5986 5.66945 86.4385 5.68946C86.2784 5.70447 86.1433 5.72198 86.0333 5.74199C85.9032 5.767 85.7957 5.79452 85.7106 5.82453V11.2349ZM84.1273 5.23922C84.2273 5.24922 84.3324 5.25923 84.4424 5.26923C84.5375 5.27924 84.6425 5.28674 84.7576 5.29175C84.8777 5.29175 85.0002 5.29175 85.1253 5.29175C85.3204 5.29175 85.583 5.26923 85.9132 5.22421C86.2484 5.17418 86.6736 5.14917 87.1889 5.14917C87.6692 5.14917 88.1119 5.21921 88.5171 5.35928C88.9273 5.49936 89.2825 5.70447 89.5827 5.97461C89.8828 6.24476 90.1155 6.57494 90.2806 6.96515C90.4507 7.35035 90.5357 7.79059 90.5357 8.28586C90.5357 8.95121 90.4031 9.52652 90.138 10.0118C89.8728 10.497 89.5177 10.8898 89.0724 11.1899C88.6272 11.4901 88.1144 11.6952 87.5341 11.8052C86.9538 11.9103 86.3459 11.9153 85.7106 11.8203V13.0659C85.7106 13.4912 85.7156 13.8639 85.7256 14.184C85.7406 14.4992 85.7556 14.7718 85.7706 15.002C85.7907 15.2321 85.8132 15.4247 85.8382 15.5798C85.8682 15.7349 85.8982 15.8649 85.9282 15.97V16H84.1273V15.97C84.1573 15.8649 84.1848 15.7349 84.2098 15.5798C84.2398 15.4247 84.2648 15.2321 84.2848 15.002C84.3049 14.7718 84.3199 14.4992 84.3299 14.184C84.3399 13.8639 84.3449 13.4912 84.3449 13.0659V8.1808C84.3449 7.75557 84.3399 7.38537 84.3299 7.0702C84.3199 6.75003 84.3049 6.47488 84.2848 6.24476C84.2648 6.00963 84.2398 5.81453 84.2098 5.65944C84.1848 5.50436 84.1573 5.37429 84.1273 5.26923V5.23922ZM98.6851 16V15.97C98.6951 15.945 98.7026 15.9075 98.7076 15.8574C98.7126 15.8074 98.7151 15.7624 98.7151 15.7224C98.7151 15.5673 98.6926 15.3972 98.6476 15.2121C98.6075 15.022 98.5275 14.7868 98.4074 14.5067L97.4994 12.4656C97.2193 12.4556 96.8466 12.4506 96.3813 12.4506C95.9161 12.4506 95.4133 12.4506 94.873 12.4506C94.4778 12.4506 94.0951 12.4506 93.7249 12.4506C93.3597 12.4506 93.0295 12.4556 92.7344 12.4656L91.8714 14.4467C91.7964 14.6318 91.7163 14.8344 91.6313 15.0545C91.5462 15.2746 91.5037 15.4972 91.5037 15.7224C91.5037 15.7874 91.5087 15.8424 91.5187 15.8874C91.5287 15.9275 91.5387 15.955 91.5487 15.97V16H90.0179V15.97C90.108 15.8749 90.2205 15.7073 90.3556 15.4672C90.4907 15.2221 90.6383 14.9169 90.7983 14.5517L95.0981 5.0141H95.6985L99.7732 14.184C99.8682 14.3991 99.9658 14.6093 100.066 14.8144C100.171 15.0145 100.268 15.1946 100.358 15.3547C100.449 15.5147 100.529 15.6498 100.599 15.7599C100.669 15.8699 100.716 15.94 100.741 15.97V16H98.6851ZM93.8225 11.8052C94.1126 11.8052 94.4103 11.8052 94.7154 11.8052C95.0206 11.8002 95.3183 11.7977 95.6084 11.7977C95.9036 11.7927 96.1862 11.7902 96.4564 11.7902C96.7265 11.7852 96.9717 11.7802 97.1918 11.7752L95.0831 7.01017L93.012 11.8052H93.8225ZM103.255 13.0659C103.255 13.4912 103.26 13.8639 103.27 14.184C103.285 14.4992 103.3 14.7718 103.315 15.002C103.335 15.2321 103.358 15.4247 103.383 15.5798C103.413 15.7349 103.443 15.8649 103.473 15.97V16H101.672V15.97C101.702 15.8649 101.729 15.7349 101.754 15.5798C101.784 15.4247 101.807 15.2321 101.822 15.002C101.842 14.7718 101.857 14.4992 101.867 14.184C101.882 13.8689 101.889 13.4962 101.889 13.0659V8.1808C101.889 7.75557 101.882 7.38537 101.867 7.0702C101.857 6.75003 101.842 6.47488 101.822 6.24476C101.807 6.01463 101.784 5.82203 101.754 5.66695C101.729 5.50686 101.702 5.37429 101.672 5.26923V5.23922L101.987 5.26923C102.082 5.27924 102.187 5.28674 102.302 5.29175C102.422 5.29175 102.545 5.29175 102.67 5.29175C102.865 5.29175 103.127 5.26923 103.458 5.22421C103.793 5.17418 104.218 5.14917 104.733 5.14917C105.214 5.14917 105.656 5.2142 106.062 5.34427C106.472 5.47434 106.827 5.66445 107.127 5.91458C107.427 6.16472 107.66 6.47238 107.825 6.83758C107.995 7.19777 108.08 7.60799 108.08 8.06824C108.08 8.42843 108.033 8.76361 107.938 9.07378C107.847 9.37894 107.717 9.65659 107.547 9.90673C107.382 10.1569 107.182 10.3795 106.947 10.5746C106.712 10.7647 106.449 10.9248 106.159 11.0548L108.793 14.7543C108.923 14.9394 109.043 15.0995 109.153 15.2346C109.268 15.3697 109.376 15.4872 109.476 15.5873C109.581 15.6823 109.681 15.7624 109.776 15.8274C109.871 15.8874 109.969 15.935 110.069 15.97V16H107.9C107.885 15.9049 107.835 15.7799 107.75 15.6248C107.67 15.4647 107.575 15.3071 107.465 15.152L104.808 11.4075C104.693 11.4175 104.578 11.4275 104.463 11.4375C104.348 11.4426 104.231 11.4451 104.11 11.4451C103.97 11.4451 103.828 11.44 103.683 11.43C103.543 11.42 103.4 11.4025 103.255 11.3775V13.0659ZM103.255 10.7922C103.39 10.8222 103.528 10.8447 103.668 10.8597C103.808 10.8697 103.943 10.8747 104.073 10.8747C104.448 10.8747 104.791 10.8197 105.101 10.7097C105.411 10.5946 105.674 10.422 105.889 10.1919C106.109 9.96176 106.279 9.6766 106.399 9.33642C106.519 8.99123 106.579 8.58852 106.579 8.12827C106.579 7.75307 106.537 7.41289 106.452 7.10772C106.367 6.80256 106.239 6.54492 106.069 6.33481C105.904 6.11969 105.694 5.9546 105.439 5.83954C105.184 5.71948 104.886 5.65944 104.546 5.65944C104.201 5.65944 103.925 5.67695 103.72 5.71197C103.515 5.74699 103.36 5.78451 103.255 5.82453V10.7922ZM113.115 5.89957C112.525 5.89957 111.992 5.92709 111.517 5.98212C111.042 6.03214 110.631 6.08717 110.286 6.14721C109.886 6.22225 109.528 6.30479 109.213 6.39484L109.431 5.17919C109.491 5.18419 109.581 5.18919 109.701 5.19419C109.821 5.1992 109.954 5.2042 110.099 5.2092C110.249 5.2142 110.404 5.21921 110.564 5.22421C110.729 5.22421 110.884 5.22671 111.029 5.23171C111.174 5.23171 111.302 5.23422 111.412 5.23922C111.527 5.23922 111.61 5.23922 111.66 5.23922H115.944C115.994 5.23922 116.074 5.23922 116.184 5.23922C116.3 5.23422 116.43 5.23171 116.575 5.23171C116.72 5.22671 116.872 5.22421 117.032 5.22421C117.198 5.21921 117.353 5.2142 117.498 5.2092C117.648 5.2042 117.783 5.1992 117.903 5.19419C118.023 5.18919 118.113 5.18419 118.173 5.17919L118.391 6.39484C118.07 6.30479 117.71 6.22225 117.31 6.14721C116.965 6.08717 116.555 6.03214 116.079 5.98212C115.604 5.92709 115.071 5.89957 114.481 5.89957V13.0659C114.481 13.4912 114.486 13.8639 114.496 14.184C114.511 14.4992 114.526 14.7718 114.541 15.002C114.561 15.2321 114.584 15.4247 114.609 15.5798C114.639 15.7349 114.669 15.8649 114.699 15.97V16H112.905V15.97C112.935 15.8649 112.963 15.7349 112.988 15.5798C113.013 15.4247 113.035 15.2321 113.055 15.002C113.075 14.7718 113.09 14.4992 113.1 14.184C113.11 13.8639 113.115 13.4912 113.115 13.0659V5.89957Z" fill="#222222"/>
</svg>
